<svg xmlns="http://www.w3.org/2000/svg" fill="none" stroke-width="1.5" viewBox="0 0 24 24"><path stroke="currentColor" stroke-linecap="round" stroke-linejoin="round" d="M21 7v10a4 4 0 0 1-4 4H7a4 4 0 0 1-4-4V7a4 4 0 0 1 4-4h10a4 4 0 0 1 4 4"/><path stroke="currentColor" stroke-linecap="round" stroke-linejoin="round" d="M7 16v-4m0 0V8h2a2 2 0 0 1 2 2v0a2 2 0 0 1-2 2zm10-1c-.3-.61-.93-1-1.62-1H15c-.83 0-1.5.67-1.5 1.5v0c0 .83.67 1.5 1.5 1.5h.5c.83 0 1.5.67 1.5 1.5v0c0 .83-.67 1.5-1.5 1.5h-.38a1.8 1.8 0 0 1-1.62-1v0"/></svg>