<svg xmlns="http://www.w3.org/2000/svg" fill="none" stroke-width="1.5" viewBox="0 0 24 24"><path stroke="currentColor" stroke-linecap="round" stroke-linejoin="round" stroke-miterlimit="1.5" d="M14.12 14.12a3 3 0 1 0-4.24-4.24 3 3 0 0 0 4.24 4.24"/><path stroke="currentColor" stroke-linecap="round" stroke-linejoin="round" stroke-miterlimit="1.5" d="M9.88 9.88s-2.8 0-4.24-1.42c-1.41-1.4-2.87-2.79-1.42-4.24 1.38-1.37 2.81-.01 4.24 1.42 1.41 1.4 1.42 4.24 1.42 4.24m4.24 0s0-2.8 1.42-4.24c1.4-1.41 2.79-2.87 4.24-1.42 1.38 1.38.01 2.81-1.42 4.24-1.4 1.41-4.24 1.42-4.24 1.42m-4.24 4.24s0 2.8-1.42 4.24c-1.4 1.41-2.79 2.87-4.24 1.42-1.37-1.38-.01-2.81 1.42-4.24 1.4-1.41 4.24-1.42 4.24-1.42m4.24 0s2.8 0 4.24 1.42c1.41 1.4 2.87 2.79 1.42 4.24-1.38 1.38-2.81.01-4.24-1.42-1.41-1.4-1.42-4.24-1.42-4.24" clip-rule="evenodd"/></svg>