<svg xmlns="http://www.w3.org/2000/svg" fill="none" stroke-width="1.5" viewBox="0 0 24 24"><path stroke="currentColor" stroke-linecap="round" stroke-linejoin="round" d="M9.88 14.12a3 3 0 1 0 4.24-4.24 3 3 0 0 0-4.24 4.24m-5.51 2.65A9 9 0 0 1 3 12a9 9 0 0 1 9-9m7.71 4.37A9 9 0 0 1 12 21"/><path stroke="currentColor" stroke-linecap="round" stroke-linejoin="round" d="M14.12 9.88s0-2.8 1.42-4.24c1.4-1.41 2.79-2.87 4.24-1.42 1.37 1.38.01 2.81-1.42 4.24-1.4 1.41-4.24 1.42-4.24 1.42m-4.24 4.24s0 2.8-1.42 4.24c-1.4 1.41-2.79 2.87-4.24 1.42-1.37-1.38-.01-2.81 1.42-4.25 1.4-1.4 4.24-1.4 4.24-1.4" clip-rule="evenodd"/></svg>