<svg xmlns="http://www.w3.org/2000/svg" fill="none" stroke-width="1.5" viewBox="0 0 24 24"><path stroke="currentColor" stroke-linecap="round" stroke-linejoin="round" d="M10.5 4.5v4.67c0 .2-.1.4-.28.5l-7.44 4.65a.6.6 0 0 0-.28.51v.9c0 .4.37.68.75.58l6.5-1.62a.6.6 0 0 1 .75.58v2.96a.6.6 0 0 1-.2.45l-2.17 1.89c-.45.4-.1 1.15.5 1.04l3.26-.59h.22l3.25.6c.6.1.96-.65.5-1.05l-2.16-1.9a.6.6 0 0 1-.2-.44v-2.96a.6.6 0 0 1 .75-.58l6.5 1.62a.6.6 0 0 0 .75-.58v-.9c0-.2-.1-.4-.28-.5l-7.44-4.65a.6.6 0 0 1-.28-.51V4.5a1.5 1.5 0 0 0-3 0"/></svg>