<svg xmlns="http://www.w3.org/2000/svg" fill="none" stroke-width="1.5" viewBox="0 0 24 24"><path stroke="currentColor" stroke-linecap="round" stroke-linejoin="round" stroke-miterlimit="1.5" d="M12 15a3 3 0 1 0 0-6 3 3 0 0 0 0 6"/><path stroke="currentColor" stroke-linecap="round" stroke-linejoin="round" stroke-miterlimit="1.5" d="M12 9s-1.99-1.97-2-4c0-2-.05-4 2-4 1.95 0 2 1.98 2 4 0 1.99-2 4-2 4m3 3s1.98-1.99 4-2c2 0 4-.05 4 2 0 1.95-1.98 2-4 2-1.98 0-4-2-4-2m-6 0s-1.97 1.99-4 2c-2 0-4 .05-4-2 0-1.95 1.98-2 4-2 1.99 0 4 2 4 2m3 3s1.99 1.98 2 4c0 2 .05 4-2 4-1.95 0-2-1.98-2-4 0-1.98 2-4 2-4" clip-rule="evenodd"/></svg>