<svg xmlns="http://www.w3.org/2000/svg" fill="none" stroke-width="1.5" viewBox="0 0 24 24"><path stroke="currentColor" d="m12.15 21.26-.15-.02-.15.02c-2.37.48-4.62.22-6.26-1.1-1.63-1.3-2.84-3.79-2.84-8.16 0-4.47 1-6.29 2.34-6.95q1.03-.52 2.73-.32c1.14.13 2.46.49 3.94.98l.26.09.26-.1c2.48-1 4.71-1.38 6.28-.65 1.47.69 2.69 2.54 2.69 6.95 0 4.37-1.21 6.86-2.84 8.16-1.64 1.32-3.89 1.58-6.26 1.1Z"/><path stroke="currentColor" stroke-linecap="round" stroke-linejoin="round" d="M12 5.5C12 3 11 2 9 2"/><path stroke="currentColor" d="M12 6v15"/><path stroke="currentColor" stroke-linecap="round" stroke-linejoin="round" d="M15 12v2"/></svg>