<svg xmlns="http://www.w3.org/2000/svg" fill="none" stroke-width="1.5" viewBox="0 0 24 24"><path stroke="currentColor" stroke-linecap="round" stroke-linejoin="round" d="M20.46 14.59c.44-1.44 1.45-6.75-5.93-11.49a.64.64 0 0 0-.81.1.6.6 0 0 0-.02.8c.03.03 2.75 3.34 1.78 7.12A327 327 0 0 1 7.16 4.7L11 11 3.86 6.4s5.05 6.2 8.14 8.53c-1.5.53-4.75 1.1-9.04-1.57a.64.64 0 0 0-.77.08.6.6 0 0 0-.1.74A13 13 0 0 0 12.94 20c2 0 3.16-.57 4.1-1.02.57-.28 1.03-.5 1.52-.5 1.24 0 2.05 1.22 2.06 1.23a.6.6 0 0 0 .58.29.6.6 0 0 0 .53-.37c.9-2.08-.65-4.27-1.27-5.04"/></svg>