<svg xmlns="http://www.w3.org/2000/svg" fill="none" stroke-width="1.5" viewBox="0 0 24 24"><path stroke="currentColor" d="M11 8.5 9.8 9l-7.45 3.39a.6.6 0 0 0-.35.54v.14c0 .23.14.45.35.54l8.82 4.01a2 2 0 0 0 1.66 0l8.82-4a.6.6 0 0 0 .35-.55v-.14a.6.6 0 0 0-.35-.54L14.2 9 13 8.5"/><path stroke="currentColor" d="M22 13v4.11a.6.6 0 0 1-.35.55l-8.83 3.97a2 2 0 0 1-1.64 0l-8.83-3.97A.6.6 0 0 1 2 17.1V13"/><path stroke="currentColor" stroke-linecap="round" stroke-linejoin="round" d="M12 8a3 3 0 1 1 0-6 3 3 0 0 1 0 6"/><path stroke="currentColor" d="M11 8v5a1 1 0 1 0 2 0V8"/><path stroke="currentColor" stroke-linecap="round" stroke-linejoin="round" d="M16 13h1"/></svg>