<svg xmlns="http://www.w3.org/2000/svg" fill="none" stroke-width="1.5" viewBox="0 0 24 24"><path stroke="currentColor" stroke-linecap="round" stroke-linejoin="round" d="M4.4 13.61C3.52 13.14 3 12.59 3 12c0-1.66 4.03-3 9-3s9 1.34 9 3c0 .71-.75 1.37-2 1.89m-7-2.88"/><path stroke="currentColor" stroke-linecap="round" stroke-linejoin="round" d="M16.88 6c0-1.02-.26-1.75-.8-2.02-1.47-.75-4.5 2.23-6.75 6.66s-2.9 8.63-1.42 9.38c.53.27 1.26.06 2.07-.52"/><path stroke="currentColor" stroke-linecap="round" stroke-linejoin="round" d="M9.6 4.25c-.66-.38-1.24-.5-1.69-.27-1.47.75-.84 4.95 1.42 9.38s5.28 7.41 6.76 6.66c1.3-.67.95-4.06-.73-7.92"/></svg>