<svg xmlns="http://www.w3.org/2000/svg" fill="none" stroke-width="1.5" viewBox="0 0 24 24"><path stroke="currentColor" stroke-linecap="round" stroke-linejoin="round" d="m12 9 1.5 6L15 9m3 6V9"/><path stroke="currentColor" stroke-linecap="round" d="M4 6V3.6c0-.33.27-.6.6-.6h14.8c.33 0 .6.27.6.6V6M4 18v2.4c0 .33.27.6.6.6h14.8a.6.6 0 0 0 .6-.6V18"/><path stroke="currentColor" stroke-linecap="round" stroke-linejoin="round" d="M6 15v-3m0 0v-1.5C6 9.67 6.67 9 7.5 9v0c.83 0 1.5.67 1.5 1.5V12m-3 0h3m0 0v3"/></svg>