<svg xmlns="http://www.w3.org/2000/svg" fill="none" stroke-width="1.5" viewBox="0 0 24 24"><path stroke="currentColor" stroke-linecap="round" stroke-linejoin="round" d="M8.5 14.5 5 22M8 6s1-1.06 1-2c0-1.33-1-2-1-2m4 4s1-1.06 1-2c0-1.33-1-2-1-2m4 4s1-1.06 1-2c0-1.33-1-2-1-2"/><path stroke="currentColor" stroke-linejoin="round" d="M16.5 17.5h-9"/><path stroke="currentColor" stroke-linecap="round" stroke-linejoin="round" d="m15.5 14.5 2.1 4.5m.9 3a1.5 1.5 0 1 0 0-3 1.5 1.5 0 0 0 0 3"/><path stroke="currentColor" d="M12 15a7 7 0 0 0 6.97-6.4.56.56 0 0 0-.57-.6H5.6c-.33 0-.6.27-.57.6A7 7 0 0 0 12 15Z"/></svg>