<svg xmlns="http://www.w3.org/2000/svg" fill="none" stroke-width="1.5" viewBox="0 0 24 24"><path stroke="currentColor" stroke-linecap="round" stroke-linejoin="round" d="M21 8v8a5 5 0 0 1-5 5H8a5 5 0 0 1-5-5V8a5 5 0 0 1 5-5h8a5 5 0 0 1 5 5"/><path stroke="currentColor" stroke-linecap="round" stroke-linejoin="round" d="M9.1 11.83c2.53 0 2.53 4.17 0 4.17H6v-4.17m3.1 0H6m3.1 0c2.53 0 2.53-3.83 0-3.83H6v3.83m9.5-.83a2.5 2.5 0 0 0-2.5 2.5h5a2.5 2.5 0 0 0-2.5-2.5M13 13.5a2.5 2.5 0 0 0 2.5 2.5c.93 0 1.5-.32 1.81-.62M17 8.5h-3"/></svg>