<svg xmlns="http://www.w3.org/2000/svg" fill="none" stroke-width="1.5" viewBox="0 0 24 24"><path stroke="currentColor" stroke-linecap="round" stroke-linejoin="round" d="M21.17 8a10 10 0 0 0-19.12 3"/><path stroke="currentColor" stroke-linecap="round" stroke-linejoin="round" d="M18 8h3.4a.6.6 0 0 0 .6-.6V4M2.88 16A10 10 0 0 0 22 13"/><path stroke="currentColor" stroke-linecap="round" stroke-linejoin="round" d="M6.05 16h-3.4a.6.6 0 0 0-.6.6V20"/><path stroke="currentColor" d="M9 12v4.4c0 .33.27.6.6.6 2.97.01 5.4.07 5.4-2.5 0-2.74-3-2.5-6-2.5Zm0 0V7.6c0-.33.27-.6.6-.6 2.97 0 5.4-.07 5.4 2.5 0 2.74-3 2.5-6 2.5Z"/><path stroke="currentColor" stroke-linecap="round" stroke-linejoin="round" d="M12 7V5.5m0 13V17"/></svg>