<svg xmlns="http://www.w3.org/2000/svg" fill="none" stroke-width="1.5" viewBox="0 0 24 24"><path stroke="currentColor" stroke-linecap="round" stroke-linejoin="round" d="M9 14c0 1.61 1.38 2 3.08 2 2.89 0 3.84-1.67 1.92-5-2.7 3-3.08-1.67-2.7-3-1.15 2-2.3 3.88-2.3 6"/><path stroke="currentColor" stroke-linecap="round" stroke-linejoin="round" d="M12 16c3.16 0 5-2.1 5-5.69S12 3 12 3s-5 3.72-5 7.31C7 13.91 8.84 16 12 16"/><path stroke="currentColor" stroke-linecap="round" d="m4.27 21.07 15.46-4.14m-15.46 0L12 19m7.73 2.07-3.87-1.04"/></svg>