<svg xmlns="http://www.w3.org/2000/svg" fill="none" stroke-width="1.5" viewBox="0 0 24 24"><path stroke="currentColor" stroke-linecap="round" d="M4 19V5c0-1.1.9-2 2-2h13.4c.33 0 .6.27.6.6v13.11"/><path stroke="currentColor" stroke-linecap="round" stroke-linejoin="round" d="M14 10h.4c.33 0 .6.27.6.6v2.8a.6.6 0 0 1-.6.6H9.6a.6.6 0 0 1-.6-.6v-2.8c0-.33.27-.6.6-.6h.4m4 0V8c0-.67-.4-2-2-2s-2 1.33-2 2v2m4 0h-4"/><path stroke="currentColor" stroke-linecap="round" d="M6 17h14M6 21h14"/><path stroke="currentColor" stroke-linecap="round" stroke-linejoin="round" d="M6 21a2 2 0 1 1 0-4"/></svg>