<svg xmlns="http://www.w3.org/2000/svg" fill="none" stroke-width="1.5" viewBox="0 0 24 24"><path fill="currentColor" d="m2.7 7.19 9 4 .6-1.38-9-4zM12.75 21.5v-11h-1.5v11zm-.45-10.31 9-4-.6-1.38-9 4z"/><path stroke="currentColor" stroke-linecap="round" stroke-linejoin="round" d="M3 17.11V6.89a.6.6 0 0 1 .36-.55l8.4-3.73a.6.6 0 0 1 .48 0l8.4 3.73c.22.1.36.31.36.55v10.22a.6.6 0 0 1-.36.55l-8.4 3.73a.6.6 0 0 1-.48 0l-8.4-3.73A.6.6 0 0 1 3 17.1"/><path stroke="currentColor" stroke-linecap="round" stroke-linejoin="round" d="m7.5 4.5 8.64 3.84q.35.17.36.55v3.61"/></svg>