<svg xmlns="http://www.w3.org/2000/svg" fill="none" stroke-width="1.5" viewBox="0 0 24 24"><path stroke="currentColor" stroke-linecap="round" stroke-linejoin="round" d="M7 14a3 3 0 1 0 1 5.83"/><path stroke="currentColor" stroke-linecap="round" stroke-linejoin="round" d="M4.26 15.6a4 4 0 0 1-.87-6.63m.03-.08Q3.01 8.28 3 7.5a2.5 2.5 0 0 1 4-2m.24.07A2.5 2.5 0 1 1 12 4.5V20m-4 0a2 2 0 1 0 4 0m0-13a3 3 0 0 0 3 3m2 4a3 3 0 1 1-1 5.83"/><path stroke="currentColor" stroke-linecap="round" stroke-linejoin="round" d="M19.74 15.6a4 4 0 0 0 .87-6.63m-.03-.08q.41-.61.42-1.39a2.5 2.5 0 0 0-4-2m-5-1a2.5 2.5 0 1 1 4.76 1.07M16 20a2 2 0 1 1-4 0"/></svg>