<svg xmlns="http://www.w3.org/2000/svg" fill="none" stroke-width="1.5" viewBox="0 0 24 24"><path stroke="currentColor" d="m12 7 1.53 1.3 2 .16.17 2L17 12l-1.3 1.53-.16 2-2 .17L12 17l-1.53-1.3-2-.16-.17-2L7 12l1.3-1.53.16-2 2-.17z"/><path fill="currentColor" d="M10.47 15.7 12 17V7l-1.53 1.3-2 .16-.17 2L7 12l1.3 1.53.16 2z"/><path stroke="currentColor" stroke-linecap="round" stroke-linejoin="round" d="M21 3.6v16.8a.6.6 0 0 1-.6.6H3.6a.6.6 0 0 1-.6-.6V3.6c0-.33.27-.6.6-.6h16.8c.33 0 .6.27.6.6"/></svg>