<svg xmlns="http://www.w3.org/2000/svg" fill="none" stroke-width="1.5" viewBox="0 0 24 24"><path stroke="currentColor" stroke-linecap="round" d="M12 21H4a2 2 0 0 1-2-2V5c0-1.1.9-2 2-2h16a2 2 0 0 1 2 2v7"/><path stroke="currentColor" stroke-linecap="round" stroke-linejoin="round" d="M2 7h20M10.99 5.02"/><path stroke="currentColor" d="m18 14 1.22 1.04 1.6.13.14 1.6L22 18l-1.04 1.22-.13 1.6-1.6.14L18 22l-1.22-1.04-1.6-.13-.14-1.6L14 18l1.04-1.22.13-1.6 1.6-.14z"/><path fill="currentColor" d="M16.78 20.96 18 22v-8l-1.22 1.04-1.6.13-.14 1.6L14 18l1.04 1.22.13 1.6z"/></svg>