<svg xmlns="http://www.w3.org/2000/svg" fill="none" stroke-width="1.5" viewBox="0 0 24 24"><path stroke="currentColor" stroke-linecap="round" stroke-linejoin="round" d="m17.3 4.11.91-1.92a.31.31 0 0 1 .58 0l.9 1.92 2.04.31c.26.04.36.38.17.57l-1.47 1.5.35 2.12c.04.27-.23.48-.46.35l-1.82-1-1.82 1c-.23.13-.5-.08-.46-.35l.35-2.12L15.1 5c-.2-.19-.09-.53.17-.57z"/><path stroke="currentColor" stroke-linecap="round" stroke-linejoin="round" d="M13 2.05Q12.5 2 12 2a10 10 0 0 0-8.66 15l-.84 4.5 4.5-.84A10 10 0 0 0 21.95 11"/></svg>