<svg xmlns="http://www.w3.org/2000/svg" fill="none" stroke-width="1.5" viewBox="0 0 24 24"><path stroke="currentColor" stroke-linecap="round" stroke-linejoin="round" d="m7 16.01.01-.01M21 12H3v7a1 1 0 0 0 1 1h9m4 3s.9-3.12 3-5"/><path stroke="currentColor" stroke-linecap="round" stroke-linejoin="round" d="m19.8 21.42-.13.02a3.1 3.1 0 0 1-3.37-2.78 3.06 3.06 0 0 1 2.76-3.35l2.99-.28c.2-.02.36.13.38.32l.25 2.58a3.2 3.2 0 0 1-2.88 3.5M21 8V6a4 4 0 0 0-4-4H7a4 4 0 0 0-4 4v2m4 0h10"/><path stroke="currentColor" stroke-linecap="round" d="M4.5 20v1.9c0 .33.27.6.6.6h2.8a.6.6 0 0 0 .6-.6V20"/></svg>