<svg xmlns="http://www.w3.org/2000/svg" fill="none" stroke-width="1.5" viewBox="0 0 24 24"><path stroke="currentColor" stroke-linecap="round" stroke-linejoin="round" d="M10 21H5a2 2 0 0 1-2-2v-9h18m-6-6V2m0 2v2m0-2h-4.5M3 10V6c0-1.1.9-2 2-2h2m0-2v4m14 4V6a2 2 0 0 0-2-2h-.5"/><path stroke="currentColor" stroke-linecap="round" stroke-linejoin="round" d="M21.67 16.67A4 4 0 0 0 17.99 14a4.1 4.1 0 0 0-3.8 3"/><path stroke="currentColor" stroke-linecap="round" stroke-linejoin="round" d="M20 16.77h1.4a.6.6 0 0 0 .6-.6v-1.62m-7.67 4.78A4 4 0 0 0 18.01 22a4.1 4.1 0 0 0 3.8-3"/><path stroke="currentColor" stroke-linecap="round" stroke-linejoin="round" d="M16 19.23h-1.4a.6.6 0 0 0-.6.6v1.62"/></svg>