<svg xmlns="http://www.w3.org/2000/svg" fill="none" stroke-width="1.5" viewBox="0 0 24 24"><path stroke="currentColor" stroke-linecap="round" stroke-linejoin="round" d="m2 20.01.01-.01M15 20h5a2 2 0 0 0 2-2V6a2 2 0 0 0-2-2H4a2 2 0 0 0-2 2v1m0 9c2 .5 3.5 2 4 4m-4-8c4 .5 7.5 4 8 8"/><path fill="currentColor" fill-rule="evenodd" d="M5 7.63c0-.33.27-.6.6-.6h12.8c.34 0 .6.27.6.6v8.83a.6.6 0 0 1-.6.6h-4.96a.6.6 0 0 1-.55-.35A19 19 0 0 0 9.82 12a16 16 0 0 0-4.44-2.82.6.6 0 0 1-.38-.57z" clip-rule="evenodd"/></svg>