<svg xmlns="http://www.w3.org/2000/svg" fill="none" stroke-width="1.5" viewBox="0 0 24 24"><path stroke="currentColor" stroke-linecap="round" stroke-linejoin="round" d="M7.58 7.42a.6.6 0 0 1 .84 0l3.4 3.4a.6.6 0 0 1 .18.43V21.4a.6.6 0 0 1-.6.6H4.6a.6.6 0 0 1-.6-.6V11.25a.6.6 0 0 1 .18-.43zM8 7V4m0-2v2m0 0H6m2 0h2"/><path stroke="currentColor" stroke-linecap="round" stroke-linejoin="round" d="M12 22h7.4a.6.6 0 0 0 .6-.6V10.75a.6.6 0 0 0-.18-.43l-3.14-3.14a.6.6 0 0 0-.43-.18H8m0 15v-5m0-3.99"/></svg>