<svg xmlns="http://www.w3.org/2000/svg" fill="none" stroke-width="1.5" viewBox="0 0 24 24"><path stroke="currentColor" stroke-linecap="round" d="M8.5 4H6a2 2 0 0 0-2 2v14c0 1.1.9 2 2 2h6m3.5-18H18a2 2 0 0 1 2 2v9"/><path stroke="currentColor" stroke-linecap="round" d="M8 6.4V4.5c0-.28.22-.5.5-.5s.5-.22.55-.5C9.2 2.65 9.77 1 12 1s2.8 1.65 2.95 2.5c.05.28.27.5.55.5s.5.22.5.5v1.9a.6.6 0 0 1-.6.6H8.6a.6.6 0 0 1-.6-.6Z"/><path stroke="currentColor" stroke-linecap="round" stroke-linejoin="round" d="m15.5 20.5 2 2 5-5"/></svg>