<svg xmlns="http://www.w3.org/2000/svg" fill="none" stroke-width="1.5" viewBox="0 0 24 24"><path stroke="currentColor" d="M1 15V9a6 6 0 0 1 6-6h10a6 6 0 0 1 6 6v6a6 6 0 0 1-6 6H7a6 6 0 0 1-6-6Z"/><path stroke="currentColor" stroke-linecap="round" d="m10.5 10-.17-.17a2.8 2.8 0 0 0-2-.83v0a2.83 2.83 0 0 0-2.83 2.83v.34A2.83 2.83 0 0 0 8.33 15v0c.75 0 1.47-.3 2-.83l.17-.17m8-4-.17-.17a2.8 2.8 0 0 0-2-.83v0a2.83 2.83 0 0 0-2.83 2.83v.34A2.83 2.83 0 0 0 16.33 15v0c.75 0 1.47-.3 2-.83l.17-.17"/></svg>