<svg xmlns="http://www.w3.org/2000/svg" fill="none" stroke-width="1.5" viewBox="0 0 24 24"><path stroke="currentColor" stroke-linecap="round" stroke-linejoin="round" d="M20 17.6c1.5-.58 3-1.91 3-4.6 0-4-3.33-5-5-5 0-2 0-6-6-6S6 6 6 8c-1.67 0-5 1-5 5 0 2.69 1.5 4.02 3 4.6m3.58 1.89 1.77 1.77a4 4 0 0 0 5.66 0l.35-.36"/><path stroke="currentColor" stroke-linecap="round" stroke-linejoin="round" d="m7.93 21.96-.35-2.47 2.48.35zm8.37-5.06-1.77-1.77a4 4 0 0 0-5.66 0l-.35.36"/><path stroke="currentColor" stroke-linecap="round" stroke-linejoin="round" d="m15.94 14.43.36 2.47-2.48-.35z"/></svg>