<svg xmlns="http://www.w3.org/2000/svg" fill="none" stroke-width="1.5" viewBox="0 0 24 24"><path stroke="currentColor" stroke-linecap="round" stroke-linejoin="round" d="M10 17h-.67a2 2 0 0 1-2-2v-1.89C7.33 12.56 6 12 6 12s1.33-.56 1.33-1.11V9c0-1.1.9-2 2-2H10m4 10h.67a2 2 0 0 0 2-2v-1.89C16.67 12.56 18 12 18 12s-1.33-.56-1.33-1.11V9a2 2 0 0 0-2-2H14"/><path stroke="currentColor" stroke-linecap="round" stroke-linejoin="round" d="M21 3.6v16.8a.6.6 0 0 1-.6.6H3.6a.6.6 0 0 1-.6-.6V3.6c0-.33.27-.6.6-.6h16.8c.33 0 .6.27.6.6"/></svg>