<svg xmlns="http://www.w3.org/2000/svg" fill="none" stroke-width="1.5" viewBox="0 0 24 24"><path stroke="currentColor" stroke-linecap="round" stroke-linejoin="round" d="M16 13c-2.76 0-5-1.12-5-2.5S13.24 8 16 8s5 1.12 5 2.5-2.24 2.5-5 2.5m-5 1.5c0 1.38 2.24 2.5 5 2.5s5-1.12 5-2.5m-18-5C3 10.88 5.24 12 8 12c1.13 0 2.16-.19 3-.5M3 13c0 1.38 2.24 2.5 5 2.5 1.13 0 2.16-.19 3-.5"/><path stroke="currentColor" stroke-linecap="round" stroke-linejoin="round" d="M3 5.5v11C3 17.88 5.24 19 8 19c1.13 0 2.16-.19 3-.5m2-10v-3m-2 5v8c0 1.38 2.24 2.5 5 2.5s5-1.12 5-2.5v-8"/><path stroke="currentColor" stroke-linecap="round" stroke-linejoin="round" d="M8 8C5.24 8 3 6.88 3 5.5S5.24 3 8 3s5 1.12 5 2.5S10.76 8 8 8"/></svg>