<svg xmlns="http://www.w3.org/2000/svg" fill="none" stroke-width="1.5" viewBox="0 0 24 24"><path stroke="currentColor" stroke-linecap="round" d="m12.15 18.28 1.18-5.8a.6.6 0 0 1 .59-.48h6.16c.29 0 .53.2.59.48l1.18 5.8a.6.6 0 0 1-.58.72h-8.54a.6.6 0 0 1-.58-.72Z"/><path stroke="currentColor" stroke-linecap="round" d="m7.15 11.28 1.18-5.8A.6.6 0 0 1 8.92 5h6.16c.29 0 .53.2.59.48l1.18 5.8a.6.6 0 0 1-.58.72H7.73a.6.6 0 0 1-.58-.72Z"/><path stroke="currentColor" stroke-linecap="round" d="m2.15 18.28 1.18-5.8a.6.6 0 0 1 .59-.48h6.16c.29 0 .53.2.59.48l1.18 5.8a.6.6 0 0 1-.58.72H2.73a.6.6 0 0 1-.58-.72Z"/></svg>