<svg xmlns="http://www.w3.org/2000/svg" fill="none" stroke-width="1.5" viewBox="0 0 24 24"><path stroke="currentColor" d="m5.21 15.11-2.69-2.69a.6.6 0 0 1 0-.84l2.7-2.7a.6.6 0 0 1 .84 0l2.69 2.7a.6.6 0 0 1 0 .84l-2.69 2.7a.6.6 0 0 1-.85 0Zm6.37 6.37-2.7-2.7a.6.6 0 0 1 0-.84l2.7-2.69a.6.6 0 0 1 .84 0l2.7 2.69a.6.6 0 0 1 0 .85l-2.7 2.69a.6.6 0 0 1-.84 0Zm0-12.73-2.7-2.69a.6.6 0 0 1 0-.85l2.7-2.69a.6.6 0 0 1 .84 0l2.7 2.7a.6.6 0 0 1 0 .84l-2.7 2.69a.6.6 0 0 1-.84 0Zm6.36 6.36-2.69-2.69a.6.6 0 0 1 0-.84l2.69-2.7a.6.6 0 0 1 .85 0l2.69 2.7a.6.6 0 0 1 0 .84l-2.7 2.7a.6.6 0 0 1-.84 0Z"/></svg>