<svg xmlns="http://www.w3.org/2000/svg" fill="none" stroke-width="1.5" viewBox="0 0 24 24"><path stroke="currentColor" stroke-linecap="round" stroke-linejoin="round" d="M3 23a2 2 0 1 1 0-4 2 2 0 0 1 0 4m18 0a2 2 0 1 1 0-4 2 2 0 0 1 0 4M3 5a2 2 0 1 1 0-4 2 2 0 0 1 0 4m18 0a2 2 0 1 1 0-4 2 2 0 0 1 0 4m-8 7c0-1.25-1.16-2.5-2.57-2.5h-.86A2.54 2.54 0 0 0 7 12a2.5 2.5 0 0 0 2.57 2.5"/><path stroke="currentColor" stroke-linecap="round" stroke-linejoin="round" d="M11 12c0 1.25 1.16 2.5 2.57 2.5h.86A2.54 2.54 0 0 0 17 12a2.5 2.5 0 0 0-2.57-2.5M21 19V5M3 19V5m2-2h14M5 21h14"/></svg>