<svg xmlns="http://www.w3.org/2000/svg" fill="none" stroke-width="1.5" viewBox="0 0 24 24"><path stroke="currentColor" stroke-linecap="round" stroke-linejoin="round" d="M22 3v4.5a.5.5 0 0 1-.5.5v0a.5.5 0 0 1-.47-.3A10 10 0 0 0 2.05 11"/><path stroke="currentColor" stroke-linecap="round" stroke-linejoin="round" d="M17 10v5a2 2 0 0 1-2 2H9a2 2 0 0 1-2-2v-5c0-1.1.9-2 2-2h6a2 2 0 0 1 2 2m-5 1V8"/><path stroke="currentColor" stroke-linecap="round" stroke-linejoin="round" d="M2.05 21v-4.5c0-.27.23-.5.5-.5v0q.32.02.47.3A10 10 0 0 0 22 13"/></svg>