<svg xmlns="http://www.w3.org/2000/svg" fill="none" stroke-width="1.5" viewBox="0 0 24 24"><path stroke="currentColor" stroke-linecap="round" stroke-linejoin="round" d="M8 15.4V8.6c0-.33.27-.6.6-.6h6.8c.33 0 .6.27.6.6v6.8a.6.6 0 0 1-.6.6H8.6a.6.6 0 0 1-.6-.6"/><path stroke="currentColor" stroke-linecap="round" stroke-linejoin="round" d="M20 4.6v14.8a.6.6 0 0 1-.6.6H4.6a.6.6 0 0 1-.6-.6V4.6c0-.33.27-.6.6-.6h14.8c.33 0 .6.27.6.6M17 4V2m-5 2V2M7 4V2m0 18v2m5-2v2m5-2v2m3-5h2m-2-5h2m-2-5h2M4 17H2m2-5H2m2-5H2"/></svg>