<svg xmlns="http://www.w3.org/2000/svg" fill="none" stroke-width="1.5" viewBox="0 0 24 24"><path stroke="currentColor" stroke-linecap="round" stroke-linejoin="round" d="m12 22-8.7-4.83a.6.6 0 0 1-.3-.52v-9.3a.6.6 0 0 1 .3-.52l8.4-4.67q.3-.15.6 0l8.4 4.67q.29.17.3.52V11"/><path stroke="currentColor" stroke-linecap="round" stroke-linejoin="round" d="m3.53 7.3 8.18 4.54q.29.15.58 0l8.21-4.56M12 12v5.5M12 2v7m6.66 8.24.7.71m-2.12.71.71.7m.71-4.95-4.25 4.25a2 2 0 0 0 0 2.83l.71.7a2 2 0 0 0 2.83 0l4.24-4.24a2 2 0 0 0 0-2.83l-.7-.7a2 2 0 0 0-2.83 0"/></svg>