<svg xmlns="http://www.w3.org/2000/svg" fill="none" stroke-width="1.5" viewBox="0 0 24 24"><path stroke="currentColor" stroke-linecap="round" stroke-linejoin="round" d="M4 6v6s0 3 7 3 7-3 7-3V6"/><path stroke="currentColor" stroke-linecap="round" stroke-linejoin="round" d="M11 3c7 0 7 3 7 3s0 3-7 3-7-3-7-3 0-3 7-3m0 18c-7 0-7-3-7-3v-6m15 9a2 2 0 1 0 0-4 2 2 0 0 0 0 4"/><path stroke="currentColor" stroke-dasharray=".3 2" stroke-linecap="round" stroke-linejoin="round" d="M19 22a3 3 0 1 0 0-6 3 3 0 0 0 0 6"/></svg>