<svg xmlns="http://www.w3.org/2000/svg" fill="none" stroke-width="1.5" viewBox="0 0 24 24"><path stroke="currentColor" stroke-linecap="round" stroke-linejoin="round" d="M4 6v6s0 3 7 3q.89 0 1.63-.06M18 6v6"/><path stroke="currentColor" stroke-linecap="round" stroke-linejoin="round" d="M11 3c7 0 7 3 7 3s0 3-7 3-7-3-7-3 0-3 7-3m0 18c-7 0-7-3-7-3v-6m18.67 5.67A4 4 0 0 0 18.99 15a4.1 4.1 0 0 0-3.8 3"/><path stroke="currentColor" stroke-linecap="round" stroke-linejoin="round" d="M21 17.67h1.67v0c.18 0 .33-.15.33-.34v-1.89m-7.67 4.89A4 4 0 0 0 19.01 23a4.1 4.1 0 0 0 3.8-3"/><path stroke="currentColor" stroke-linecap="round" stroke-linejoin="round" d="M17 20.33h-1.67v0a.33.33 0 0 0-.33.34v1.89"/></svg>