<svg xmlns="http://www.w3.org/2000/svg" fill="none" stroke-width="1.5" viewBox="0 0 24 24"><path stroke="currentColor" stroke-linecap="round" stroke-linejoin="round" d="M4 6v6s0 3 7 3 7-3 7-3V6"/><path stroke="currentColor" stroke-linecap="round" stroke-linejoin="round" d="M11 3c7 0 7 3 7 3s0 3-7 3-7-3-7-3 0-3 7-3m0 18c-7 0-7-3-7-3v-6m13.3 5.11.91-1.92a.31.31 0 0 1 .58 0l.9 1.92 2.04.31c.26.04.36.38.17.57l-1.47 1.5.35 2.12c.04.27-.23.48-.46.35l-1.82-1-1.82 1c-.23.13-.5-.08-.46-.35l.35-2.12L15.1 18c-.2-.19-.09-.53.17-.57z"/></svg>