<svg xmlns="http://www.w3.org/2000/svg" fill="none" stroke-width="1.5" viewBox="0 0 24 24"><path stroke="currentColor" stroke-linecap="round" stroke-linejoin="round" stroke-miterlimit="1.5" d="M8 19a2 2 0 1 0 0-4 2 2 0 0 0 0 4m10 0a2 2 0 1 0 0-4 2 2 0 0 0 0 4"/><path stroke="currentColor" stroke-linecap="round" d="M10.05 17H15V6.6a.6.6 0 0 0-.6-.6H1m4.65 11H3.6a.6.6 0 0 1-.6-.6v-4.9"/><path stroke="currentColor" stroke-linecap="round" stroke-linejoin="round" d="M2 9h4"/><path stroke="currentColor" stroke-linecap="round" d="M15 9h5.61a.6.6 0 0 1 .55.36l1.79 4.02.05.25v2.77a.6.6 0 0 1-.6.6h-1.9M15 17h1"/></svg>