<svg xmlns="http://www.w3.org/2000/svg" fill="none" stroke-width="1.5" viewBox="0 0 24 24"><path stroke="currentColor" stroke-linecap="round" stroke-linejoin="round" d="m17.67 11.4-1.9 5.72a.6.6 0 0 1-.4.39L3.7 20.98a.6.6 0 0 1-.74-.76l3.8-11.38a.6.6 0 0 1 .34-.36l5.38-2.22a.6.6 0 0 1 .65.13l4.4 4.4c.17.16.23.4.15.62M3.3 20.6l6.36-6.36"/><path stroke="currentColor" stroke-linecap="round" stroke-linejoin="round" d="m17.8 11.06 2.82-2.83a2 2 0 0 0 0-2.83L18.5 3.28a2 2 0 0 0-2.83 0L12.84 6.1m-1.06 6.02a1.5 1.5 0 1 0-2.12 2.12 1.5 1.5 0 0 0 2.12-2.12"/></svg>