<svg xmlns="http://www.w3.org/2000/svg" fill="none" stroke-width="1.5" viewBox="0 0 24 24"><path stroke="currentColor" stroke-linecap="round" stroke-linejoin="round" d="M5 12a5 5 0 1 0 6 0m-6 0V3h6v9m0-9h2m-2 3h2m-2 3h2"/><path stroke="currentColor" stroke-linecap="round" stroke-linejoin="round" d="M8 14a2 2 0 1 0 0 4 2 2 0 0 0 0-4m0 0V9"/><path stroke="currentColor" stroke-linecap="round" stroke-linejoin="round" stroke-miterlimit="1.5" d="M19 3s3 3 3 4.89a3 3 0 0 1-6 0C16.01 5.99 19 3 19 3" clip-rule="evenodd"/></svg>