<svg xmlns="http://www.w3.org/2000/svg" fill="none" stroke-width="1.5" viewBox="0 0 24 24"><path fill="currentColor" stroke="currentColor" stroke-linecap="round" stroke-linejoin="round" d="M5.5 5a.5.5 0 1 1 0-1 .5.5 0 0 1 0 1m0 5a.5.5 0 1 1 0-1 .5.5 0 0 1 0 1m0 5a.5.5 0 1 1 0-1 .5.5 0 0 1 0 1M12 5a.5.5 0 1 1 0-1 .5.5 0 0 1 0 1m0 5a.5.5 0 1 1 0-1 .5.5 0 0 1 0 1m0 5a.5.5 0 1 1 0-1 .5.5 0 0 1 0 1m0 5a.5.5 0 1 1 0-1 .5.5 0 0 1 0 1m6.5-15a.5.5 0 1 1 0-1 .5.5 0 0 1 0 1m0 5a.5.5 0 1 1 0-1 .5.5 0 0 1 0 1m0 5a.5.5 0 1 1 0-1 .5.5 0 0 1 0 1"/></svg>