<svg xmlns="http://www.w3.org/2000/svg" fill="none" stroke-width="1.5" viewBox="0 0 24 24"><path stroke="currentColor" stroke-linecap="round" stroke-linejoin="round" d="M5.5 16c5 2.5 8 2.5 13 0"/><path stroke="currentColor" stroke-linecap="round" stroke-linejoin="round" d="m15.5 17.5 1 2s4.17-1.33 5.5-3.5c0-1 .53-8.15-3-10.5-1.5-1-4-1.5-4-1.5l-1 2h-2"/><path stroke="currentColor" stroke-linecap="round" stroke-linejoin="round" d="m8.53 17.5-1 2s-4.17-1.33-5.5-3.5c0-1-.53-8.15 3-10.5 1.5-1 4-1.5 4-1.5l1 2h2"/><path stroke="currentColor" stroke-linecap="round" stroke-linejoin="round" d="M8.5 14c-.83 0-1.5-.9-1.5-2s.67-2 1.5-2 1.5.9 1.5 2-.67 2-1.5 2m7 0c-.83 0-1.5-.9-1.5-2s.67-2 1.5-2 1.5.9 1.5 2-.67 2-1.5 2"/></svg>