<svg xmlns="http://www.w3.org/2000/svg" fill="none" stroke-width="1.5" viewBox="0 0 24 24"><path stroke="currentColor" stroke-linecap="round" stroke-linejoin="round" d="M22 13v-1a10 10 0 1 0-18 6"/><path stroke="currentColor" stroke-linecap="round" stroke-linejoin="round" d="M13 2.05S16 6 16 12v1M11 2.05S8 6 8 12v1m-5.37 2.5H4m-1.37-7h18.74M7 22v-6h1a2 2 0 0 1 2 2v2a2 2 0 0 1-2 2zm6 0v-6l3 6v-6m3 6h2c.83 0 1.5-.67 1.5-1.5v0c0-.83-.67-1.5-1.5-1.5h-.5a1.5 1.5 0 0 1-1.5-1.5v0c0-.83.67-1.5 1.5-1.5H22"/></svg>