<svg xmlns="http://www.w3.org/2000/svg" fill="none" stroke-width="1.5" viewBox="0 0 24 24"><path stroke="currentColor" stroke-linecap="round" stroke-linejoin="round" d="M4 21.4V2.6c0-.33.27-.6.6-.6h11.65a.6.6 0 0 1 .43.18l3.14 3.14a.6.6 0 0 1 .18.43V21.4a.6.6 0 0 1-.6.6H4.6a.6.6 0 0 1-.6-.6"/><path stroke="currentColor" stroke-linecap="round" stroke-linejoin="round" d="m10.63 10.42 1.04-2.2a.36.36 0 0 1 .66 0l1.04 2.2 2.32.35c.3.05.42.43.2.65l-1.68 1.71.4 2.42c.05.32-.27.55-.53.4L12 14.82l-2.08 1.15c-.26.14-.58-.1-.53-.4l.4-2.43-1.68-1.71c-.22-.22-.1-.6.2-.65zM16 2v3.4c0 .33.27.6.6.6H20"/></svg>