<svg xmlns="http://www.w3.org/2000/svg" fill="none" stroke-width="1.5" viewBox="0 0 24 24"><path stroke="currentColor" stroke-linecap="round" stroke-linejoin="round" d="M20.5 20.5 22 22m-7-4a3 3 0 1 0 6 0 3 3 0 0 0-6 0"/><path stroke="currentColor" stroke-linecap="round" stroke-linejoin="round" d="M20 12V5.75a.6.6 0 0 0-.18-.43l-3.14-3.14a.6.6 0 0 0-.43-.18H4.6a.6.6 0 0 0-.6.6v18.8c0 .33.27.6.6.6H11"/><path stroke="currentColor" stroke-linecap="round" stroke-linejoin="round" d="M16 2v3.4c0 .33.27.6.6.6H20"/></svg>