<svg xmlns="http://www.w3.org/2000/svg" fill="none" stroke-width="1.5" viewBox="0 0 24 24"><path stroke="currentColor" stroke-linecap="round" stroke-linejoin="round" d="M21.17 8a10 10 0 0 0-19.12 3"/><path stroke="currentColor" stroke-linecap="round" stroke-linejoin="round" d="M18 8h3.4a.6.6 0 0 0 .6-.6V4M2.88 16A10 10 0 0 0 22 13"/><path stroke="currentColor" stroke-linecap="round" stroke-linejoin="round" d="M6.05 16h-3.4a.6.6 0 0 0-.6.6V20"/><path stroke="currentColor" d="M10 16.4V7.6c0-.33.27-.6.6-.6 2.49-.04 5.9-.08 5.9 5s-3.41 5.04-5.9 5a.6.6 0 0 1-.6-.6Z"/><path stroke="currentColor" stroke-linecap="round" stroke-linejoin="round" d="M8 12h4"/></svg>