<svg xmlns="http://www.w3.org/2000/svg" fill="none" stroke-width="1.5" viewBox="0 0 24 24"><path stroke="currentColor" stroke-linejoin="round" d="M16 6.28c0 .6-.24 1.18-.66 1.6-.98.99-1.93 2.02-2.94 2.96a.6.6 0 0 1-.82-.01L8.66 7.89a2.28 2.28 0 0 1 3.23-3.22l.11.11.1-.1a2.28 2.28 0 0 1 3.9 1.6Z"/><path stroke="currentColor" stroke-linecap="round" stroke-linejoin="round" d="m18 20 3.82-3.82a.6.6 0 0 0 .18-.43V10.5c0-.83-.67-1.5-1.5-1.5v0c-.83 0-1.5.67-1.5 1.5V15"/><path stroke="currentColor" stroke-linecap="round" stroke-linejoin="round" d="m18 16 .86-.86Q19 15 19 14.8v0q0-.29-.27-.43l-.44-.23a2 2 0 0 0-2.3.38l-.9.9a2 2 0 0 0-.59 1.4V20M6 20l-3.82-3.82a.6.6 0 0 1-.18-.43V10.5C2 9.67 2.67 9 3.5 9v0c.83 0 1.5.67 1.5 1.5V15"/><path stroke="currentColor" stroke-linecap="round" stroke-linejoin="round" d="m6 16-.86-.86A.5.5 0 0 1 5 14.8v0q0-.29.27-.43l.44-.23a2 2 0 0 1 2.3.38l.9.9a2 2 0 0 1 .59 1.4V20"/></svg>