<svg xmlns="http://www.w3.org/2000/svg" fill="none" stroke-width="1.5" viewBox="0 0 24 24"><path stroke="currentColor" stroke-linecap="round" stroke-linejoin="round" d="m7 10.5-2 2.67a2 2 0 0 0 .12 2.55l3.79 4.13a2 2 0 0 0 1.47.65H15c2.4 0 4-1.5 4-4q0 0 0 0V7.93m-3 .57v-.57c0-2.29 3-2.29 3 0"/><path stroke="currentColor" stroke-linecap="round" stroke-linejoin="round" d="M13 8.5V7.03m0-.53v.53m3 1.47V7.03c0-2.29-3-2.29-3 0"/><path stroke="currentColor" stroke-linecap="round" stroke-linejoin="round" d="M13 8.5V7.03c0-2.29 3-2.29 3 0V8.5m-6 0v-2c0-2.29 3-2.29 3 0q0 0 0 0v2m-6 5v-7C7 5.67 7.67 5 8.5 5v0c.83 0 1.5.56 1.5 1.38V8.5"/></svg>