<svg xmlns="http://www.w3.org/2000/svg" fill="none" stroke-width="1.5" viewBox="0 0 24 24"><path stroke="currentColor" stroke-linecap="round" d="M13.46 17h-2.92a.6.6 0 0 1-.6-.53l-.87-7.8a.6.6 0 0 1 .6-.67h4.66a.6.6 0 0 1 .6.67l-.87 7.8a.6.6 0 0 1-.6.53Z"/><path stroke="currentColor" stroke-linecap="round" stroke-linejoin="round" stroke-miterlimit="1.5" d="M4.5 7a2.5 2.5 0 1 0 0-5 2.5 2.5 0 0 0 0 5"/><path stroke="currentColor" stroke-linecap="round" stroke-linejoin="round" d="M4.5 4.5 9 8M4.5 19.5l5-4m10-11L15 8m-.5 7.5 1.25 1"/><path stroke="currentColor" stroke-linecap="round" stroke-linejoin="round" stroke-miterlimit="1.5" d="M4.5 22a2.5 2.5 0 1 0 0-5 2.5 2.5 0 0 0 0 5m15-15a2.5 2.5 0 1 0 0-5 2.5 2.5 0 0 0 0 5"/><path stroke="currentColor" stroke-linecap="round" stroke-linejoin="round" d="m18 22.24 2.12-2.12m0 0L22.24 18m-2.12 2.12L18 18m2.12 2.12 2.12 2.12"/></svg>