<svg xmlns="http://www.w3.org/2000/svg" fill="none" stroke-width="1.5" viewBox="0 0 24 24"><path stroke="currentColor" stroke-linecap="round" d="m14.25 14.75.25-2.25.43-3.83a.6.6 0 0 0-.6-.67H9.67a.6.6 0 0 0-.6.67l.87 7.8c.03.3.3.53.6.53H11"/><path stroke="currentColor" stroke-linecap="round" stroke-linejoin="round" stroke-miterlimit="1.5" d="M4.5 7a2.5 2.5 0 1 0 0-5 2.5 2.5 0 0 0 0 5"/><path stroke="currentColor" stroke-linecap="round" stroke-linejoin="round" d="M4.5 4.5 9 8M4.5 19.5l5-4m10-11L15 8"/><path stroke="currentColor" stroke-linecap="round" stroke-linejoin="round" stroke-miterlimit="1.5" d="M4.5 22a2.5 2.5 0 1 0 0-5 2.5 2.5 0 0 0 0 5m15-15a2.5 2.5 0 1 0 0-5 2.5 2.5 0 0 0 0 5"/><path stroke="currentColor" stroke-linecap="round" stroke-linejoin="round" d="M23 19v2m-8-2v2"/><path stroke="currentColor" d="M13 22.4v-4.8c0-.33.27-.6.6-.6h6.8c.33 0 .6.27.6.6v4.8a.6.6 0 0 1-.6.6h-6.8a.6.6 0 0 1-.6-.6Z"/></svg>