<svg xmlns="http://www.w3.org/2000/svg" fill="none" stroke-width="1.5" viewBox="0 0 24 24"><path stroke="currentColor" stroke-linecap="round" d="m14.5 12.5.43-3.83a.6.6 0 0 0-.6-.67H9.67a.6.6 0 0 0-.6.67l.87 7.8c.03.3.3.53.6.53H11"/><path stroke="currentColor" stroke-linecap="round" stroke-linejoin="round" stroke-miterlimit="1.5" d="M4.5 7a2.5 2.5 0 1 0 0-5 2.5 2.5 0 0 0 0 5"/><path stroke="currentColor" stroke-linecap="round" stroke-linejoin="round" d="M4.5 4.5 9 8M4.5 19.5l5-4m10-11L15 8"/><path stroke="currentColor" stroke-linecap="round" stroke-linejoin="round" stroke-miterlimit="1.5" d="M4.5 22a2.5 2.5 0 1 0 0-5 2.5 2.5 0 0 0 0 5m15-15a2.5 2.5 0 1 0 0-5 2.5 2.5 0 0 0 0 5"/><path stroke="currentColor" stroke-linecap="round" stroke-linejoin="round" d="M21.67 16.67A4 4 0 0 0 17.99 14a4.1 4.1 0 0 0-3.8 3"/><path stroke="currentColor" stroke-linecap="round" stroke-linejoin="round" d="M20 16.77h1.4a.6.6 0 0 0 .6-.6v-1.62m-7.67 4.78A4 4 0 0 0 18.01 22a4.1 4.1 0 0 0 3.8-3"/><path stroke="currentColor" stroke-linecap="round" stroke-linejoin="round" d="M16 19.23h-1.4a.6.6 0 0 0-.6.6v1.62"/></svg>