<svg xmlns="http://www.w3.org/2000/svg" fill="none" stroke-width="1.5" viewBox="0 0 24 24"><path stroke="currentColor" stroke-linecap="round" d="M4 19V5c0-1.1.9-2 2-2h13.4c.33 0 .6.27.6.6v13.11"/><path stroke="currentColor" stroke-linecap="round" stroke-linejoin="round" d="M10 14s.9-3.12 3-5"/><path stroke="currentColor" stroke-linecap="round" stroke-linejoin="round" d="m12.8 12.42-.13.02A3.1 3.1 0 0 1 9.3 9.66a3.06 3.06 0 0 1 2.76-3.35l2.99-.28c.2-.02.36.13.38.32l.25 2.58a3.2 3.2 0 0 1-2.88 3.5"/><path stroke="currentColor" stroke-linecap="round" d="M6 17h14M6 21h14"/><path stroke="currentColor" stroke-linecap="round" stroke-linejoin="round" d="M6 21a2 2 0 1 1 0-4"/></svg>