<svg xmlns="http://www.w3.org/2000/svg" fill="none" stroke-width="1.5" viewBox="0 0 24 24"><path fill="currentColor" stroke="currentColor" stroke-linecap="round" stroke-linejoin="round" d="M5 3a1 1 0 1 0 0-2 1 1 0 0 0 0 2"/><path stroke="currentColor" stroke-linecap="round" stroke-linejoin="round" d="M5 22h8m-8 0V2"/><path fill="currentColor" stroke="currentColor" stroke-linecap="round" stroke-linejoin="round" d="M5 23a1 1 0 1 0 0-2 1 1 0 0 0 0 2"/><path stroke="currentColor" stroke-dasharray="3 3" stroke-linecap="round" stroke-linejoin="round" d="M8 4.2A7 7 0 0 1 13 2c4.42 0 8 4.48 8 10 0 3.27-1.26 6.18-3.2 8"/><path stroke="currentColor" stroke-linecap="round" stroke-linejoin="round" d="M8.2 20A9 9 0 0 1 7 18.61"/><path fill="currentColor" stroke="currentColor" stroke-linecap="round" stroke-linejoin="round" d="M13 23a1 1 0 1 0 0-2 1 1 0 0 0 0 2"/></svg>