<svg xmlns="http://www.w3.org/2000/svg" fill="none" stroke-width="1.5" viewBox="0 0 24 24"><path fill="currentColor" d="M2.8 8.1a.9.9 0 1 1-1.8 0 .9.9 0 0 1 1.8 0"/><path stroke="currentColor" stroke-linecap="round" d="M2.8 8.1a.9.9 0 1 1-1.8 0 .9.9 0 0 1 1.8 0Zm0 0V3.6c0-.33.27-.6.6-.6H5"/><path stroke="currentColor" stroke-linecap="round" stroke-linejoin="round" d="M8 17a2 2 0 1 0 0-4 2 2 0 0 0 0 4"/><path stroke="currentColor" stroke-linecap="round" stroke-linejoin="round" d="M2.05 13A10 10 0 1 0 8 2.83"/><path fill="currentColor" stroke="currentColor" stroke-linecap="round" stroke-linejoin="round" d="M15.5 9a.5.5 0 1 0 0-1 .5.5 0 0 0 0 1m-7 0a.5.5 0 1 0 0-1 .5.5 0 0 0 0 1"/></svg>