<svg xmlns="http://www.w3.org/2000/svg" fill="none" stroke-width="1.5" viewBox="0 0 24 24"><path stroke="currentColor" stroke-linecap="round" stroke-linejoin="round" d="M8 17a2 2 0 1 1 0-4 2 2 0 0 1 0 4"/><path stroke="currentColor" stroke-linecap="round" stroke-linejoin="round" d="M12 22a10 10 0 1 0 0-20 10 10 0 0 0 0 20"/><path fill="currentColor" stroke="currentColor" stroke-linecap="round" stroke-linejoin="round" d="M8.5 9a.5.5 0 1 1 0-1 .5.5 0 0 1 0 1m7 0a.5.5 0 1 1 0-1 .5.5 0 0 1 0 1"/></svg>