<svg xmlns="http://www.w3.org/2000/svg" fill="none" stroke-width="1.5" viewBox="0 0 24 24"><path fill="currentColor" d="M20.8 8.1a.9.9 0 1 1-1.8 0 .9.9 0 0 1 1.8 0"/><path stroke="currentColor" stroke-linecap="round" d="M20.8 8.1a.9.9 0 1 1-1.8 0 .9.9 0 0 1 1.8 0Zm0 0V3.6c0-.33.27-.6.6-.6H23"/><path stroke="currentColor" stroke-linecap="round" stroke-linejoin="round" d="M16 17a2 2 0 1 1 0-4 2 2 0 0 1 0 4"/><path stroke="currentColor" stroke-linecap="round" stroke-linejoin="round" d="M21.95 13A10 10 0 1 1 16 2.83"/><path fill="currentColor" stroke="currentColor" stroke-linecap="round" stroke-linejoin="round" d="M8.5 9a.5.5 0 1 1 0-1 .5.5 0 0 1 0 1m7 0a.5.5 0 1 1 0-1 .5.5 0 0 1 0 1"/></svg>