<svg xmlns="http://www.w3.org/2000/svg" fill="none" stroke-width="1.5" viewBox="0 0 24 24"><path stroke="currentColor" stroke-linecap="round" stroke-linejoin="round" d="M2 12A10 10 0 1 0 12 2"/><path stroke="currentColor" stroke-linecap="round" stroke-linejoin="round" d="M11.5 15.5s1.5-2 4.5-2 4.5 2 4.5 2M3 4c0-2.75 4-2.75 4 0 0 1.97-2 1.64-2 4m0 3.01"/><path fill="black" stroke="currentColor" stroke-linecap="round" stroke-linejoin="round" d="M17.5 9a.5.5 0 1 1 0-1 .5.5 0 0 1 0 1m-7 0a.5.5 0 1 1 0-1 .5.5 0 0 1 0 1"/></svg>