<svg xmlns="http://www.w3.org/2000/svg" fill="none" stroke-width="1.5" viewBox="0 0 24 24"><path stroke="currentColor" stroke-linecap="round" stroke-linejoin="round" d="M10.5 15h-.9a.6.6 0 0 0-.6.6v4.8c0 .33.27.6.6.6h10.8a.6.6 0 0 0 .6-.6V9.6a.6.6 0 0 0-.6-.6h-4.8a.6.6 0 0 0-.6.6v.9"/><path stroke="currentColor" stroke-linecap="round" stroke-linejoin="round" d="M13.5 15h.9a.6.6 0 0 0 .6-.6v-.9m-6 0v.9a.6.6 0 0 1-.6.6H3.6a.6.6 0 0 1-.6-.6V3.6c0-.33.27-.6.6-.6h10.8c.33 0 .6.27.6.6v4.8a.6.6 0 0 1-.6.6h-.9"/><path stroke="currentColor" stroke-linecap="round" stroke-linejoin="round" d="M9 10.5v-.9c0-.33.27-.6.6-.6h.9"/></svg>