<svg xmlns="http://www.w3.org/2000/svg" fill="none" stroke-width="1.5" viewBox="0 0 24 24"><path stroke="currentColor" stroke-linecap="round" d="M13 21H4a2 2 0 0 1-2-2V5c0-1.1.9-2 2-2h16a2 2 0 0 1 2 2v8"/><path stroke="currentColor" stroke-linejoin="round" d="M22 17.28c0 .6-.24 1.18-.66 1.6-.98.99-1.93 2.02-2.94 2.96a.6.6 0 0 1-.82-.01l-2.92-2.94a2.28 2.28 0 0 1 3.23-3.22l.11.11.1-.1a2.28 2.28 0 0 1 3.9 1.6Z"/><path stroke="currentColor" stroke-linecap="round" stroke-linejoin="round" d="M2 7h20M10.99 5.02"/></svg>