<svg xmlns="http://www.w3.org/2000/svg" fill="none" stroke-width="1.5" viewBox="0 0 24 24"><path stroke="currentColor" stroke-linecap="round" stroke-linejoin="round" d="M7 16v-4.64q0-.76.28-1.45M17 13.5v-.68M9.22 7.73A5.5 5.5 0 0 1 12 7c2.28 0 4.2 1.33 4.8 3.15M10 17v-2.18M14 17v-5.15c0-1.02-.9-1.85-2-1.85s-2 .83-2 1.85v.8"/><path stroke="currentColor" stroke-linecap="round" stroke-linejoin="round" d="M14 21.8q-.98.2-2 .2a10 10 0 1 1 9.97-9.25"/><path stroke="currentColor" stroke-linecap="round" stroke-linejoin="round" d="M21.17 18.5h.23c.33 0 .6.27.6.6v2.3a.6.6 0 0 1-.6.6h-3.8a.6.6 0 0 1-.6-.6v-2.3c0-.33.27-.6.6-.6h.23m3.34 0v-1.75c0-.58-.34-1.75-1.67-1.75s-1.67 1.17-1.67 1.75v1.75m3.34 0h-3.34"/></svg>