<svg xmlns="http://www.w3.org/2000/svg" fill="none" stroke-width="1.5" viewBox="0 0 24 24"><path stroke="currentColor" stroke-linecap="round" stroke-linejoin="round" d="M7 16v-4.64q0-.76.28-1.45M17 16v-3.18M9.22 7.73A5.5 5.5 0 0 1 12 7c2.28 0 4.2 1.33 4.8 3.15M10 17v-2.18M14 17v-5.15c0-1.02-.9-1.85-2-1.85s-2 .83-2 1.85v.8"/><path stroke="currentColor" stroke-linecap="round" stroke-linejoin="round" d="M21 3.6v16.8a.6.6 0 0 1-.6.6H3.6a.6.6 0 0 1-.6-.6V3.6c0-.33.27-.6.6-.6h16.8c.33 0 .6.27.6.6"/></svg>