<svg xmlns="http://www.w3.org/2000/svg" fill="none" stroke-width="1.5" viewBox="0 0 24 24"><path stroke="currentColor" stroke-linecap="round" stroke-linejoin="round" d="M7 16v-4.64q0-.76.28-1.45M17 14v-1.18M9.22 7.73A5.5 5.5 0 0 1 12 7c2.28 0 4.2 1.33 4.8 3.15M10 17v-2.18M14 17v-5.15c0-1.02-.9-1.85-2-1.85s-2 .83-2 1.85v.8"/><path stroke="currentColor" stroke-linecap="round" stroke-linejoin="round" d="M12 22a10 10 0 1 1 9.54-7m-4.42 7.36 2.12-2.12m0 0 2.12-2.12m-2.12 2.12-2.12-2.12m2.12 2.12 2.12 2.12"/></svg>