<svg xmlns="http://www.w3.org/2000/svg" fill="none" stroke-width="1.5" viewBox="0 0 24 24"><path stroke="currentColor" stroke-linecap="round" stroke-linejoin="round" d="M7 3.52A9 9 0 0 1 20.65 8.5M21 22v-8M3 22V11q0-1.58.51-3"/><path stroke="currentColor" stroke-linecap="round" stroke-linejoin="round" d="M18 22V11.3C18 7.82 15.31 5 12 5s-6 2.82-6 6.3V14m0 8v-4"/><path stroke="currentColor" stroke-linecap="round" stroke-linejoin="round" d="M9 22V11.15A3.1 3.1 0 0 1 12 8c.87 0 1.64.38 2.2 1m.8 13v-8m-3 8v-3.5m0-7.5v3"/></svg>