<svg xmlns="http://www.w3.org/2000/svg" fill="none" stroke-width="1.5" viewBox="0 0 24 24"><path stroke="currentColor" stroke-linecap="round" stroke-linejoin="round" stroke-miterlimit="1.5" d="M12 15a3 3 0 1 0 0-6 3 3 0 0 0 0 6m1-6s1-2 1-4-2-4-2-4-2 2-2 4 1 4 1 4"/><path stroke="currentColor" stroke-linecap="round" stroke-linejoin="round" stroke-miterlimit="1.5" d="M9 11s-2-1-4-1-4 2-4 2 2 2 4 2 4-1 4-1m4 2s1 2 1 4-2 4-2 4-2-2-2-4 1-4 1-4m4-4s2-1 4-1 4 2 4 2-2 2-4 2-4-1-4-1m-4.41-3.83s-.71-2.12-2.13-3.53C7.05 4.22 4.22 4.22 4.22 4.22s0 2.83 1.42 4.24a10 10 0 0 0 3.53 2.13m0 2.82s-2.12.71-3.53 2.13c-1.42 1.41-1.42 4.24-1.42 4.24s2.83 0 4.24-1.42a10 10 0 0 0 2.13-3.53m4.24-1.42s2.12.71 3.53 2.13c1.42 1.41 1.42 4.24 1.42 4.24s-2.83 0-4.24-1.42a10 10 0 0 1-2.13-3.53m0-5.66s.71-2.12 2.13-3.53c1.41-1.42 4.24-1.42 4.24-1.42s0 2.83-1.42 4.24a10 10 0 0 1-3.53 2.13"/></svg>