<svg xmlns="http://www.w3.org/2000/svg" fill="none" stroke-width="1.5" viewBox="0 0 24 24"><path stroke="currentColor" stroke-linecap="round" stroke-linejoin="round" d="M2.6 4h6.18a.6.6 0 0 1 .39.14l3.16 2.72q.17.14.4.14h8.67c.33 0 .6.27.6.6v2.8a.6.6 0 0 1-.6.6H2.6a.6.6 0 0 1-.6-.6V4.6c0-.33.27-.6.6-.6M22 10v4"/><path stroke="currentColor" stroke-linecap="round" stroke-linejoin="round" d="M2 10v9.4c0 .33.27.6.6.6H13m6 1a2 2 0 1 0 0-4 2 2 0 0 0 0 4"/><path stroke="currentColor" stroke-dasharray=".3 2" stroke-linecap="round" stroke-linejoin="round" d="M19 22a3 3 0 1 0 0-6 3 3 0 0 0 0 6"/></svg>