<svg xmlns="http://www.w3.org/2000/svg" fill="none" stroke-width="1.5" viewBox="0 0 24 24"><path stroke="currentColor" stroke-linecap="round" stroke-linejoin="round" d="M4.12 14.01a22 22 0 0 0-.1 3.67 2.4 2.4 0 0 0 2.3 2.3c1 .06 2.3.06 3.67-.1m-5.87-5.87c.27-2.4 1.05-5.08 2.93-6.96s4.55-2.66 6.96-2.93m-9.9 9.9L10 19.87m0 0c2.4-.27 5.08-1.05 6.96-2.93s2.66-4.55 2.93-6.96m-5.87-5.87c1.38-.16 2.66-.16 3.67-.1a2.4 2.4 0 0 1 2.3 2.3c.06 1 .06 2.3-.1 3.67m-5.87-5.87 5.87 5.87m-10.7 4.84 1.4-1.42m0 0L9.19 12m1.4 1.41L12 14.83m-1.41-1.42 2.82-2.82m0 0 1.42-1.42M13.4 10.6 12 9.17m1.41 1.42L14.83 12"/></svg>