<svg xmlns="http://www.w3.org/2000/svg" fill="none" stroke-width="1.5" viewBox="0 0 24 24"><path stroke="currentColor" stroke-linecap="round" stroke-linejoin="round" stroke-miterlimit="1.5" d="M5 2H2v3h3zm0 8.5H2v3h3zM20.5 5v5.5M3.5 5v5.5m17 3V19m-17-5.5V19M5 20.5h5.5"/><path stroke="currentColor" stroke-linecap="round" stroke-linejoin="round" stroke-miterlimit="1.5" stroke-width="1.22" d="M5 3.5h5.5"/><path stroke="currentColor" stroke-linecap="round" stroke-linejoin="round" stroke-miterlimit="1.5" d="M13.5 20.5H19"/><path stroke="currentColor" stroke-linecap="round" stroke-linejoin="round" stroke-miterlimit="1.5" stroke-width="1.22" d="M13.5 3.5H19"/><path stroke="currentColor" stroke-linecap="round" stroke-linejoin="round" stroke-miterlimit="1.5" d="M5 19H2v3h3zM22 2h-3v3h3zm-8.5 0h-3v3h3zm8.5 8.5h-3v3h3zm0 8.5h-3v3h3zm-8.5 0h-3v3h3z"/></svg>