<svg xmlns="http://www.w3.org/2000/svg" fill="none" stroke-width="1.5" viewBox="0 0 24 24"><path stroke="currentColor" stroke-linecap="round" stroke-linejoin="round" d="M17.5 17.5c2.5 3.5 6.45.92 5.5-2.5a962 962 0 0 1-2.6-9.5A2 2 0 0 0 18.44 4H5.56a2 2 0 0 0-1.94 1.51A361 361 0 0 1 1.14 15c-.94 3.42 3 6 5.5 2.5M18 8.5l.01.01M16.49 7l.01.01M16.49 10l.01.01M7 7v3M5.5 8.5h3"/><path stroke="currentColor" stroke-linecap="round" stroke-linejoin="round" d="M8 16a2 2 0 1 0 0-4 2 2 0 0 0 0 4m8 0a2 2 0 1 0 0-4 2 2 0 0 0 0 4"/></svg>