<svg xmlns="http://www.w3.org/2000/svg" fill="none" stroke-width="1.5" viewBox="0 0 24 24"><g stroke="currentColor" stroke-linecap="round" stroke-linejoin="round" clip-path="url(#clip0_4265_8324)"><path d="M12 10a1.5 1.5 0 1 0 0-3 1.5 1.5 0 0 0 0 3m0 8a1.5 1.5 0 1 0 0-3 1.5 1.5 0 0 0 0 3m4.25-3.75a1.5 1.5 0 1 0 0-3 1.5 1.5 0 0 0 0 3M12 10v5M8.25 4.75 10.5 7m2.75 2.75 1.5 1.5"/><path d="M11.58 1.42a.6.6 0 0 1 .84 0l10.16 10.16a.6.6 0 0 1 0 .84L12.42 22.58a.6.6 0 0 1-.84 0L1.42 12.42a.6.6 0 0 1 0-.84z"/></g><defs><clipPath id="clip0_4265_8324"><path fill="white" d="M0 0h24v24H0z"/></clipPath></defs></svg>