<svg xmlns="http://www.w3.org/2000/svg" fill="none" stroke-width="1.5" viewBox="0 0 24 24"><path stroke="currentColor" stroke-linecap="round" stroke-linejoin="round" d="M12 22a10 10 0 1 0 0-20 10 10 0 0 0 0 20"/><path stroke="currentColor" stroke-linecap="round" stroke-linejoin="round" d="M14.33 19v-1.86a2.1 2.1 0 0 0-.62-1.7c2.09-.22 4.29-1 4.29-4.54 0-.9-.36-1.78-1-2.44.3-.79.28-1.66-.06-2.44 0 0-.79-.23-2.6.96a9 9 0 0 0-4.67 0c-1.82-1.19-2.61-.96-2.61-.96A3.2 3.2 0 0 0 7 8.46c-.65.67-1 1.55-1 2.46 0 3.52 2.2 4.29 4.3 4.54a2.2 2.2 0 0 0-.63 1.68V19"/><path stroke="currentColor" stroke-linecap="round" stroke-linejoin="round" d="M9.67 17.7c-2 .63-3.67 0-4.67-1.95"/></svg>