<svg xmlns="http://www.w3.org/2000/svg" fill="none" stroke-width="1.5" viewBox="0 0 24 24"><path stroke="currentColor" stroke-linecap="round" stroke-linejoin="round" d="M16 22.03v-2.87a3.4 3.4 0 0 0-.94-2.61c3.14-.35 6.44-1.54 6.44-7 0-1.4-.54-2.74-1.5-3.75a5 5 0 0 0-.09-3.77S18.73 1.68 16 3.5a13.4 13.4 0 0 0-7 0C6.27 1.67 5.09 2.02 5.09 2.02A5 5 0 0 0 5 5.8a5.4 5.4 0 0 0-1.5 3.78c0 5.42 3.3 6.6 6.44 7A3.4 3.4 0 0 0 9 19.16v2.87"/><path stroke="currentColor" stroke-linecap="round" stroke-linejoin="round" d="M9 20.03c-3 .97-5.5 0-7-3"/></svg>