<svg xmlns="http://www.w3.org/2000/svg" fill="none" stroke-width="1.5" viewBox="0 0 24 24"><path stroke="currentColor" stroke-linecap="round" stroke-linejoin="round" d="M9.14 3h5.72M9.14 3 2 15M9.14 3l4.9 9.5m.82-9.5L5.58 21m9.28-18 5.35 9M5.57 21 2 15m3.58 6H12M2 15h10.5m10.17 2.67A4 4 0 0 0 18.99 15a4.1 4.1 0 0 0-3.8 3"/><path stroke="currentColor" stroke-linecap="round" stroke-linejoin="round" d="M21 17.77h1.4a.6.6 0 0 0 .6-.6v-1.62m-7.67 4.78A4 4 0 0 0 19.01 23a4.1 4.1 0 0 0 3.8-3"/><path stroke="currentColor" stroke-linecap="round" stroke-linejoin="round" d="M17 20.23h-1.4a.6.6 0 0 0-.6.6v1.62"/></svg>