<svg xmlns="http://www.w3.org/2000/svg" fill="none" stroke-width="1.5" viewBox="0 0 24 24"><path stroke="currentColor" stroke-linecap="round" stroke-linejoin="round" d="M14.87 19.12 17 17m2.12-2.12L17 17m0 0-2.12-2.12M17 17l2.12 2.12"/><path stroke="currentColor" d="M4 9.4V4.6c0-.33.27-.6.6-.6h4.8c.33 0 .6.27.6.6v4.8a.6.6 0 0 1-.6.6H4.6a.6.6 0 0 1-.6-.6Zm0 10v-4.8c0-.33.27-.6.6-.6h4.8c.33 0 .6.27.6.6v4.8a.6.6 0 0 1-.6.6H4.6a.6.6 0 0 1-.6-.6Zm10-10V4.6c0-.33.27-.6.6-.6h4.8c.33 0 .6.27.6.6v4.8a.6.6 0 0 1-.6.6h-4.8a.6.6 0 0 1-.6-.6Z"/></svg>