<svg xmlns="http://www.w3.org/2000/svg" fill="none" stroke-width="1.5" viewBox="0 0 24 24"><path stroke="currentColor" stroke-linecap="round" stroke-linejoin="round" d="M21.8 14A10 10 0 1 1 11 2.05"/><path stroke="currentColor" stroke-linecap="round" stroke-linejoin="round" d="M6.5 10a.5.5 0 1 1 0-1 .5.5 0 0 1 0 1m14-6a.5.5 0 1 1 0-1 .5.5 0 0 1 0 1M12 19a1 1 0 1 1 0-2 1 1 0 0 1 0 2m4.99-3.98.01-.01m4-6 .01-.01M17 6.01l.01-.01M11 2c-.5 1.5.5 3 2.09 3C11 8.5 13 12 18 11.5c0 2.5 2.5 3 3.7 2.51"/></svg>