<svg xmlns="http://www.w3.org/2000/svg" fill="none" stroke-width="1.5" viewBox="0 0 24 24"><path stroke="currentColor" stroke-linecap="round" stroke-linejoin="round" d="m2 11 2.8-3.16a4 4 0 0 1 3-1.34H8m-6 13h5.5l4-3s.8-.55 2-1.5c2.5-2 0-5.17-2.5-3.5C8.96 12.86 7 14 7 14"/><path stroke="currentColor" d="M8 13.5V7c0-1.1.9-2 2-2h10a2 2 0 0 1 2 2v6a2 2 0 0 1-2 2h-6.5"/><path stroke="currentColor" stroke-linecap="round" stroke-linejoin="round" d="M18.25 12c.5-1.5.5-2.5 0-4M16 9c.23.5.23 1.5 0 2"/></svg>