<svg xmlns="http://www.w3.org/2000/svg" fill="none" stroke-width="1.5" viewBox="0 0 24 24"><path stroke="currentColor" stroke-linecap="round" stroke-linejoin="round" d="M12.5 13 10 17h4l-2.5 4"/><path stroke="currentColor" stroke-linecap="round" stroke-linejoin="round" d="m4 13.5-.49.12A2 2 0 0 0 2 15.56v1.88a2 2 0 0 0 1.51 1.94l1.74.43a.6.6 0 0 0 .75-.58v-5.46a.6.6 0 0 0-.75-.58zm0 0V13c0-4.97 3.58-9 8-9s8 4.03 8 9v.5m0 0 .49.12A2 2 0 0 1 22 15.56v1.88a2 2 0 0 1-1.51 1.94l-1.74.43a.6.6 0 0 1-.75-.58v-5.46a.6.6 0 0 1 .75-.58z"/></svg>