<svg xmlns="http://www.w3.org/2000/svg" fill="none" stroke-width="1.5" viewBox="0 0 24 24"><path stroke="currentColor" stroke-linecap="round" stroke-linejoin="round" d="m18 20 3.82-3.82a.6.6 0 0 0 .18-.43V10.5c0-.83-.67-1.5-1.5-1.5v0c-.83 0-1.5.67-1.5 1.5V15"/><path stroke="currentColor" stroke-linecap="round" stroke-linejoin="round" d="m18 16 .86-.86Q19 15 19 14.8v0q0-.29-.27-.43l-.44-.23a2 2 0 0 0-2.3.38l-.9.9a2 2 0 0 0-.59 1.4V20M6 20l-3.82-3.82a.6.6 0 0 1-.18-.43V10.5C2 9.67 2.67 9 3.5 9v0c.83 0 1.5.67 1.5 1.5V15"/><path stroke="currentColor" stroke-linecap="round" stroke-linejoin="round" d="m6 16-.86-.86A.5.5 0 0 1 5 14.8v0q0-.29.27-.43l.44-.23a2 2 0 0 1 2.3.38l.9.9a2 2 0 0 1 .59 1.4V20m4.17-8h-3.34V9.67H8V6.33h2.33V4h3.34v2.33H16v3.34h-2.33z"/></svg>