<svg xmlns="http://www.w3.org/2000/svg" fill="none" stroke-width="1.5" viewBox="0 0 24 24"><path stroke="currentColor" stroke-linecap="round" stroke-linejoin="round" d="M11.7 1.17a.6.6 0 0 1 .6 0l8.93 5.16c.18.1.3.3.3.52v10.3a.6.6 0 0 1-.3.52l-8.93 5.16a.6.6 0 0 1-.6 0l-8.93-5.16a.6.6 0 0 1-.3-.52V6.85a.6.6 0 0 1 .3-.52z"/><path stroke="currentColor" stroke-linecap="round" stroke-linejoin="round" d="M17 15H7l5-8z"/><path stroke="currentColor" stroke-linejoin="round" d="M2.5 6.5 12 7m-9.5-.5L7 15m14.5-8.5L17 15m4.5-8.5L12 7V1m9.5 16.5L17 15M2.5 17.5 7 15m0 0 5 8 5-8"/></svg>