<svg xmlns="http://www.w3.org/2000/svg" fill="none" stroke-width="1.5" viewBox="0 0 24 24"><path stroke="currentColor" stroke-linecap="round" stroke-linejoin="round" stroke-miterlimit="1.5" d="M4 9.5c0 4.57 5.71 8 5.71 8h4.58S20 14.07 20 9.5s-3.58-8-8-8a7.9 7.9 0 0 0-8 8"/><path stroke="currentColor" stroke-linejoin="round" d="M9 2c-3 6 1 15.5 1 15.5M14.88 2c3 6-1 15.5-1 15.5"/><path stroke="currentColor" stroke-linecap="round" d="M13.4 23h-2.8a.6.6 0 0 1-.6-.6v-1.8c0-.33.27-.6.6-.6h2.8c.33 0 .6.27.6.6v1.8a.6.6 0 0 1-.6.6Z"/></svg>