<svg xmlns="http://www.w3.org/2000/svg" fill="none" stroke-width="1.5" viewBox="0 0 24 24"><path stroke="currentColor" stroke-linecap="round" stroke-linejoin="round" d="M12 18a6 6 0 1 0 0-12 6 6 0 0 0 0 12m6-6h-6M9 6.8l3 5.2m0 0-3 5.2"/><path stroke="currentColor" stroke-dasharray="1 3" stroke-linecap="round" stroke-linejoin="round" d="M12 19a7 7 0 1 0 0-14 7 7 0 0 0 0 14"/><path stroke="currentColor" stroke-linecap="round" stroke-linejoin="round" d="M12 22a10 10 0 1 0 0-20 10 10 0 0 0 0 20"/><path stroke="currentColor" stroke-linecap="round" stroke-linejoin="round" d="M12 15a3 3 0 1 0 0-6 3 3 0 0 0 0 6"/></svg>