<svg xmlns="http://www.w3.org/2000/svg" fill="none" stroke-width="1.5" viewBox="0 0 24 24"><path stroke="currentColor" stroke-linecap="round" stroke-linejoin="round" d="M12 2a9.1 9.1 0 0 1 9 9.37c-.02.95-.87 1.63-1.82 1.63H4.82c-.95 0-1.8-.68-1.82-1.63v-.2A9.1 9.1 0 0 1 12 2M6 13l1 1.13c.57.64.57 1.6 0 2.24v0a1.7 1.7 0 0 0 0 2.25v0a1.7 1.7 0 0 1 0 2.25L6 22m5-9 1 1.13c.57.64.57 1.6 0 2.24v0a1.7 1.7 0 0 0 0 2.25v0a1.7 1.7 0 0 1 0 2.25L11 22m5-9 1 1.13c.57.64.57 1.6 0 2.24v0a1.7 1.7 0 0 0 0 2.25v0a1.7 1.7 0 0 1 0 2.25L16 22"/></svg>