<svg xmlns="http://www.w3.org/2000/svg" fill="none" stroke-width="1.5" viewBox="0 0 24 24"><path stroke="currentColor" stroke-linecap="round" stroke-linejoin="round" d="M13.85 13.32 9.5 18.28a2 2 0 0 1-3.02 0l-4.34-4.96a2 2 0 0 1 0-2.64L6.5 5.72a2 2 0 0 1 3.02 0l4.34 4.96a2 2 0 0 1 0 2.64"/><path stroke="currentColor" stroke-linecap="round" stroke-linejoin="round" d="m13 19 4.88-5.7a2 2 0 0 0 0-2.6L13 5"/><path stroke="currentColor" stroke-linecap="round" stroke-linejoin="round" d="m17 19 4.88-5.7a2 2 0 0 0 0-2.6L17 5"/></svg>