<svg xmlns="http://www.w3.org/2000/svg" fill="none" stroke-width="1.5" viewBox="0 0 24 24"><path stroke="currentColor" stroke-linecap="round" stroke-linejoin="round" d="M15 21H9v-8.4c0-.33.27-.6.6-.6h4.8c.33 0 .6.27.6.6zm5.4 0H15v-2.9c0-.33.27-.6.6-.6h4.8c.33 0 .6.27.6.6v2.3a.6.6 0 0 1-.6.6M9 21v-4.9a.6.6 0 0 0-.6-.6H3.6a.6.6 0 0 0-.6.6v4.3c0 .33.27.6.6.6zm1.8-15.89.91-1.92a.31.31 0 0 1 .58 0l.9 1.92 2.04.31c.26.04.36.38.17.57l-1.47 1.5.35 2.12c.04.27-.23.48-.46.35l-1.82-1-1.82 1c-.23.13-.5-.08-.46-.35l.35-2.12L8.6 6c-.2-.19-.09-.53.17-.57z"/></svg>