<svg xmlns="http://www.w3.org/2000/svg" fill="none" stroke-width="1.5" viewBox="0 0 24 24"><path stroke="currentColor" stroke-linecap="round" stroke-linejoin="round" d="M6.82 22v-2.86C6.52 16.17 3 14.57 3 10s2.73-8.06 8.18-8c3.93.04 7.64 2.29 7.64 6.86L21 12.29c0 2.28-2.18 2.28-2.18 2.28s.54 5.72-4.37 5.72V22"/><path stroke="currentColor" stroke-linecap="round" stroke-linejoin="round" d="M11 12a2 2 0 1 0 0-4 2 2 0 0 0 0 4"/><path stroke="currentColor" stroke-dasharray=".3 2" stroke-linecap="round" stroke-linejoin="round" d="M11 13a3 3 0 1 0 0-6 3 3 0 0 0 0 6"/></svg>