<svg xmlns="http://www.w3.org/2000/svg" fill="none" stroke-width="1.5" viewBox="0 0 24 24"><path stroke="currentColor" stroke-linecap="round" d="M2.5 20c1 0 2-.8 2-2v-7c0-3.5 3.1-7 7.5-7m9.5 16c-1 0-2-.8-2-2v-7c0-3.5-3.1-7-7.5-7"/><path stroke="currentColor" stroke-linecap="round" stroke-linejoin="round" d="M12 19c2.76 0 5-1.12 5-2.5S14.76 14 12 14s-5 1.12-5 2.5S9.24 19 12 19"/><path stroke="currentColor" stroke-linecap="round" stroke-linejoin="round" d="M7.75 15A4.3 4.3 0 0 1 7 12.5C7 10.57 8.12 9 9.5 9s2.5 1.57 2.5 3.5q0 .69-.18 1.29M16.25 15a4.3 4.3 0 0 0 .75-2.5c0-1.93-1.12-3.5-2.5-3.5S12 10.57 12 12.5q0 .69.18 1.29M9.5 12v2m5-2v2"/></svg>