<svg xmlns="http://www.w3.org/2000/svg" fill="none" stroke-width="1.5" viewBox="0 0 24 24"><path stroke="currentColor" stroke-linecap="round" stroke-linejoin="round" d="M22 12.6v7.8a.6.6 0 0 1-.6.6h-7.8a.6.6 0 0 1-.6-.6v-7.8c0-.33.27-.6.6-.6h7.8c.33 0 .6.27.6.6"/><path stroke="currentColor" stroke-linecap="round" stroke-linejoin="round" d="M16.92 14.57a.6.6 0 0 0-.92.51v2.84c0 .47.52.76.92.5l2.27-1.41a.6.6 0 0 0 0-1.02zM2 10V3.6c0-.33.27-.6.6-.6h6.18a.6.6 0 0 1 .39.14l3.16 2.72q.17.14.4.14h8.67c.33 0 .6.27.6.6V9M2 10v8.4c0 .33.27.6.6.6H10m-8-9h8"/></svg>