<svg xmlns="http://www.w3.org/2000/svg" fill="none" stroke-width="1.5" viewBox="0 0 24 24"><path stroke="currentColor" stroke-linecap="round" stroke-linejoin="round" d="M22 12.6v7.8a.6.6 0 0 1-.6.6h-7.8a.6.6 0 0 1-.6-.6v-7.8c0-.33.27-.6.6-.6h7.8c.33 0 .6.27.6.6m-2.5 1.91.01-.01"/><path stroke="currentColor" stroke-linecap="round" stroke-linejoin="round" d="m13 18.2 3.5-1.2 5.5 2M2 10V3.6c0-.33.27-.6.6-.6h6.18a.6.6 0 0 1 .39.14l3.16 2.72q.17.14.4.14h8.67c.33 0 .6.27.6.6V9M2 10v8.4c0 .33.27.6.6.6H10m-8-9h8"/></svg>