<svg xmlns="http://www.w3.org/2000/svg" fill="none" stroke-width="1.5" viewBox="0 0 24 24"><path stroke="currentColor" stroke-linecap="round" stroke-linejoin="round" d="m14 16.01.01-.01m-4.01.01.01-.01M22 12v3a5 5 0 0 1-5 5H7a5 5 0 0 1-5-5v-3a10 10 0 1 1 20 0"/><path stroke="currentColor" stroke-linecap="round" stroke-linejoin="round" d="M18 12v3a5 5 0 0 1-5 5h-2a5 5 0 0 1-5-5v-3a5 5 0 0 1 5-5h2a5 5 0 0 1 5 5"/><path stroke="currentColor" stroke-linecap="round" d="m10.5 20-2 2.5m5-2.5 2 2.5m1-2.5 2 2.5M7.5 20l-2 2.5"/><path stroke="currentColor" stroke-linecap="round" stroke-linejoin="round" d="M11.79 10h.42c.99 0 1.79.8 1.79 1.79 0 .11-.1.21-.21.21H10.2a.2.2 0 0 1-.21-.21c0-.99.8-1.79 1.79-1.79"/></svg>