<svg xmlns="http://www.w3.org/2000/svg" fill="none" stroke-width="1.5" viewBox="0 0 24 24"><path fill="currentColor" d="m12 5 .53-.53a.75.75 0 0 0-1.06 0zm0 8-.53.53c.3.3.77.3 1.06 0zM9.47 6.47a.75.75 0 0 0 1.06 1.06zm4 1.06a.75.75 0 1 0 1.06-1.06zm-2.94 2.94a.75.75 0 1 0-1.06 1.06zm4 1.06a.75.75 0 1 0-1.06-1.06zM3.25 10v4h1.5v-4zm17.5 4v-4h-1.5v4zm-9.5-9v8h1.5V5zm.22-.53-2 2 1.06 1.06 2-2zm0 1.06 2 2 1.06-1.06-2-2zm1.06 6.94-2-2-1.06 1.06 2 2zm0 1.06 2-2-1.06-1.06-2 2zM20.75 10A8.75 8.75 0 0 0 12 1.25v1.5c4 0 7.25 3.25 7.25 7.25zM12 22.75A8.75 8.75 0 0 0 20.75 14h-1.5c0 4-3.25 7.25-7.25 7.25zM3.25 14A8.75 8.75 0 0 0 12 22.75v-1.5C8 21.25 4.75 18 4.75 14zm1.5-4C4.75 6 8 2.75 12 2.75v-1.5A8.75 8.75 0 0 0 3.25 10z"/></svg>