<svg xmlns="http://www.w3.org/2000/svg" fill="none" stroke-width="1.5" viewBox="0 0 24 24"><path stroke="currentColor" stroke-linecap="round" stroke-linejoin="round" d="M2.87 21.12 5 19m2.12-2.12L5 19m0 0-2.12-2.12M5 19l2.12 2.12M7 2h9.5L21 6.5V19"/><path stroke="currentColor" stroke-linecap="round" stroke-linejoin="round" d="M11 22h5.5c.83 0 1.5-.67 1.5-1.5V8.75a.6.6 0 0 0-.18-.43l-3.14-3.14a.6.6 0 0 0-.43-.18H4.5C3.67 5 3 5.67 3 6.5V13"/><path stroke="currentColor" stroke-linecap="round" stroke-linejoin="round" d="M14 5v3.4c0 .33.27.6.6.6H18"/></svg>