<svg xmlns="http://www.w3.org/2000/svg" fill="none" stroke-width="1.5" viewBox="0 0 24 24"><path stroke="currentColor" stroke-linecap="round" stroke-linejoin="round" d="M7 18h7m-7-4h1m-1-4h3M7 2h9.5L21 6.5V19"/><path stroke="currentColor" stroke-linecap="round" stroke-linejoin="round" d="M3 20.5v-14C3 5.67 3.67 5 4.5 5h9.75a.6.6 0 0 1 .43.18l3.14 3.14a.6.6 0 0 1 .18.43V20.5c0 .83-.67 1.5-1.5 1.5h-12A1.5 1.5 0 0 1 3 20.5"/><path stroke="currentColor" stroke-linecap="round" stroke-linejoin="round" d="M14 5v3.4c0 .33.27.6.6.6H18"/></svg>