<svg xmlns="http://www.w3.org/2000/svg" fill="none" stroke-width="1.5" viewBox="0 0 24 24"><path stroke="currentColor" stroke-linecap="round" stroke-linejoin="round" d="M11 21H4a2 2 0 0 1-2-2v-4.54a2 2 0 0 1 .96-1.71l3.5-2.12a2 2 0 0 1 2.08 0l3.5 2.12a2 2 0 0 1 .96 1.71V19a2 2 0 0 1-2 2M6.5 10V6.46a2 2 0 0 1 .96-1.71l3.5-2.12a2 2 0 0 1 2.08 0l3.5 2.12a2 2 0 0 1 .96 1.71V10M16 21h4a2 2 0 0 0 2-2v-4.54a2 2 0 0 0-.96-1.71l-3.5-2.12a2 2 0 0 0-2.07-.01l-.64.38"/><path stroke="currentColor" stroke-linecap="round" stroke-linejoin="round" d="M9 21v-3.4a.6.6 0 0 0-.6-.6H6.6a.6.6 0 0 0-.6.6V21m12 0v-3.4a.6.6 0 0 0-.6-.6H16"/></svg>