<svg xmlns="http://www.w3.org/2000/svg" fill="none" stroke-width="1.5" viewBox="0 0 24 24"><path stroke="currentColor" stroke-linecap="round" stroke-linejoin="round" d="M15 12v3m0-6c0-1-.71-2-2.14-2v0A2.86 2.86 0 0 1 10 4.14V3m8 6V4m0 8v3"/><path stroke="currentColor" d="M15 15H6.6a.6.6 0 0 1-.6-.6v-1.8c0-.33.27-.6.6-.6H12"/><path stroke="currentColor" stroke-linecap="round" stroke-linejoin="round" d="m5 5 14 14m-7 3a10 10 0 1 0 0-20 10 10 0 0 0 0 20"/><path stroke="currentColor" stroke-linecap="round" stroke-linejoin="round" d="M12 22a10 10 0 1 0 0-20 10 10 0 0 0 0 20"/></svg>