<svg xmlns="http://www.w3.org/2000/svg" fill="none" stroke-width="1.5" viewBox="0 0 24 24"><path stroke="currentColor" stroke-linecap="round" stroke-linejoin="round" d="m7.5 12-2 2.67a2 2 0 0 0 .12 2.55l3.79 4.13a2 2 0 0 0 1.47.65h4.62c2.4 0 4-2 4-4q0 0 0 0V9.43m-3 .57v-.57c0-2.29 3-2.29 3 0"/><path stroke="currentColor" stroke-linecap="round" stroke-linejoin="round" d="M13.5 10V8.29c0-2.29 3-2.29 3 0V10m-6 0V7.5c0-2.29 3-2.29 3 0q0 0 0 0V10m-3 0V3.5C10.5 2.67 9.83 2 9 2v0c-.83 0-1.5.67-1.5 1.5V15"/></svg>