<svg xmlns="http://www.w3.org/2000/svg" fill="none" stroke-width="1.5" viewBox="0 0 24 24"><path stroke="currentColor" stroke-linecap="round" stroke-linejoin="round" d="m8 14.57-1.82-1.73a1.56 1.56 0 0 0-2.25.1v0c-.53.6-.51 1.5.04 2.09l5.94 6.34a2 2 0 0 0 1.46.63H16c2.4 0 4-2 4-4q0 0 0 0V9.43"/><path stroke="currentColor" stroke-linecap="round" stroke-linejoin="round" d="M17 10v-.57c0-2.29 3-2.29 3 0M14 10V8.29c0-2.29 3-2.29 3 0V10m-6 0V7.5c0-2.29 3-2.29 3 0q0 0 0 0V10m-6 4.57V3.5C8 2.67 8.67 2 9.5 2v0c.83 0 1.5.67 1.5 1.5V10"/></svg>