<svg xmlns="http://www.w3.org/2000/svg" fill="none" stroke-width="1.5" viewBox="0 0 24 24"><path fill="currentColor" d="m10.84 15.29.73.14zm-.36-.7.38-.65zm-.28 7.24.14-.74zm-.45-.68.74.14zm7.1-1.34.74-.13zm.87.38-.43-.61zM7.87 16l-.74-.14zm-.14-.53-.58.48zm5.8-.88.37.65zm-.36.7.73-.13zm3.1.18-.58-.47zm-.14.52.74-.13zm-1.88 5.17-.74.14zm-.45.68.13.74zM6.28 20.2l-.43.62zM2.75 12c0-5.1 4.14-9.25 9.25-9.25v-1.5A10.75 10.75 0 0 0 1.25 12zm3.96 7.58A9.2 9.2 0 0 1 2.75 12h-1.5a10.7 10.7 0 0 0 4.6 8.8zm.42-3.73-.72 3.83 1.48.27.72-3.83zM5.75 12c0 1.5.53 2.86 1.4 3.94l1.16-.95A4.7 4.7 0 0 1 7.25 12zM12 5.75A6.25 6.25 0 0 0 5.75 12h1.5A4.75 4.75 0 0 1 12 7.25zM18.25 12c0-3.45-2.8-6.25-6.25-6.25v1.5A4.75 4.75 0 0 1 16.75 12zm-1.4 3.94a6.2 6.2 0 0 0 1.4-3.94h-1.5c0 1.14-.4 2.17-1.06 3zm.74 3.74-.72-3.83-1.48.27.72 3.83zM21.25 12c0 3.14-1.57 5.9-3.96 7.58l.86 1.23a10.7 10.7 0 0 0 4.6-8.81zM12 2.75c5.1 0 9.25 4.14 9.25 9.25h1.5c0-5.94-4.81-10.75-10.75-10.75zM15.75 12A3.75 3.75 0 0 0 12 8.25v1.5c1.24 0 2.25 1 2.25 2.25zm-1.85 3.23A3.8 3.8 0 0 0 15.75 12h-1.5c0 .82-.44 1.54-1.1 1.94zM15 21l-1.09-5.86-1.47.28 1.08 5.86zm-3 1.75q1 0 1.93-.18l-.27-1.48q-.81.16-1.66.16zm-1.94-.18q.94.17 1.94.18v-1.5q-.85 0-1.66-.16zm.04-7.42L9 21.01l1.48.28 1.08-5.86zM8.25 12c0 1.38.74 2.58 1.85 3.23l.76-1.3A2.3 2.3 0 0 1 9.75 12zM12 8.25A3.75 3.75 0 0 0 8.25 12h1.5c0-1.24 1-2.25 2.25-2.25zm-.43 7.18a1.4 1.4 0 0 0-.71-1.5l-.76 1.3v-.08zm-1.23 5.66c.12.02.16.13.15.2L9 21c-.13.7.3 1.42 1.05 1.56zm5.77-1.14c.17.9 1.21 1.44 2.04.86l-.86-1.23a.2.2 0 0 1 .2-.02q.08.04.1.12zm-7.5-3.83c.08-.42-.05-.83-.3-1.13l-1.16.95q-.02-.01-.02-.1zm4.53-2.18c-.45.27-.83.82-.71 1.49l1.47-.28v.08zm2.55 1.05c-.25.3-.38.71-.3 1.13l1.48-.27q0 .08-.02.09zm-2.18 6.3a.17.17 0 0 1 .15-.2l.27 1.48A1.33 1.33 0 0 0 15 21zm-7.66-.48c.83.58 1.87.03 2.04-.86l-1.48-.27q.02-.08.1-.12a.2.2 0 0 1 .2.02z"/></svg>