<svg xmlns="http://www.w3.org/2000/svg" fill="none" stroke-width="1.5" viewBox="0 0 24 24"><path stroke="currentColor" stroke-linecap="round" stroke-linejoin="round" d="M9 18s.9-3.74 3-6"/><path stroke="currentColor" stroke-linecap="round" stroke-linejoin="round" d="m16.19 7.24.37 3.9a4.63 4.63 0 0 1-4.17 5 4.5 4.5 0 1 1-.9-8.96l4.14-.4c.28-.02.53.18.56.46"/><path stroke="currentColor" stroke-linecap="round" stroke-linejoin="round" d="M21 3.6v16.8a.6.6 0 0 1-.6.6H3.6a.6.6 0 0 1-.6-.6V3.6c0-.33.27-.6.6-.6h16.8c.33 0 .6.27.6.6"/></svg>