<svg xmlns="http://www.w3.org/2000/svg" fill="none" stroke-width="1.5" viewBox="0 0 24 24"><path stroke="currentColor" stroke-linecap="round" stroke-linejoin="round" d="M20 12V5.75a.6.6 0 0 0-.18-.43l-3.14-3.14a.6.6 0 0 0-.43-.18H4.6a.6.6 0 0 0-.6.6v18.8c0 .33.27.6.6.6H11M8 10h8M8 6h4m-4 8h3"/><path stroke="currentColor" stroke-linecap="round" stroke-linejoin="round" d="m16.3 17.11.91-1.92a.31.31 0 0 1 .58 0l.9 1.92 2.04.31c.26.04.36.38.17.57l-1.47 1.5.35 2.12c.04.27-.23.48-.46.35l-1.82-1-1.82 1c-.23.13-.5-.08-.46-.35l.35-2.12L14.1 18c-.2-.19-.09-.53.17-.57zM16 2v3.4c0 .33.27.6.6.6H20"/></svg>