<svg xmlns="http://www.w3.org/2000/svg" fill="none" stroke-width="1.5" viewBox="0 0 24 24"><path stroke="currentColor" stroke-linecap="round" stroke-linejoin="round" d="M20 12V5.75a.6.6 0 0 0-.18-.43l-3.14-3.14a.6.6 0 0 0-.43-.18H4.6a.6.6 0 0 0-.6.6v18.8c0 .33.27.6.6.6H11M8 10h8M8 6h4m-4 8h3m6.95 2.94 1-1a1.1 1.1 0 0 1 1.59 0v0c.44.44.44 1.15 0 1.59l-1 1m-1.59-1.6-2.99 3a1 1 0 0 0-.28.55l-.24 1.56L16 21.8a1 1 0 0 0 .55-.28l2.99-3m-1.59-1.58 1.59 1.59"/><path stroke="currentColor" stroke-linecap="round" stroke-linejoin="round" d="M16 2v3.4c0 .33.27.6.6.6H20"/></svg>