<svg xmlns="http://www.w3.org/2000/svg" fill="none" stroke-width="1.5" viewBox="0 0 24 24"><path stroke="currentColor" stroke-linecap="round" stroke-linejoin="round" d="M7 22h10"/><path stroke="currentColor" d="M2 17V4c0-1.1.9-2 2-2h16a2 2 0 0 1 2 2v13a2 2 0 0 1-2 2H4a2 2 0 0 1-2-2Z"/><path stroke="currentColor" stroke-linecap="round" stroke-linejoin="round" d="M14.86 7.7A3.99 3.99 0 0 0 8 10.5c0 1.09.44 2.08 1.14 2.8m5.72-5.6A3.99 3.99 0 0 1 12 14.5a4 4 0 0 1-2.86-1.2m5.72-5.6-5.72 5.6"/></svg>