<svg xmlns="http://www.w3.org/2000/svg" fill="none" stroke-width="1.5" viewBox="0 0 24 24"><path stroke="currentColor" stroke-linecap="round" d="M14.15 9.47V3.61A1.6 1.6 0 0 0 12.54 2v0c-.9 0-1.61.72-1.61 1.61v4.84m5.42 4.39 2.17-7.25a1.6 1.6 0 0 0-1.08-1.98v0a1.6 1.6 0 0 0-1.96 1.1l-1.33 4.76m-6.53-.22 1.05 2.34a1.61 1.61 0 0 1-2.93 1.33l-1.06-2.35a1.61 1.61 0 0 1 2.94-1.32Z"/><path stroke="currentColor" stroke-linecap="round" d="M11.72 12.26v0c.2-.57.18-1.2-.07-1.74l-1.07-2.38a1.6 1.6 0 0 0-2.1-.8v0A1.6 1.6 0 0 0 7.7 9.5l.14.28"/><path stroke="currentColor" stroke-linecap="round" d="m13.86 17.68.49-.99c.05-.1 0-.21-.1-.24l-3.56-1.05c-.71-.2-1.17-.9-1.1-1.63v0c.1-.84.84-1.45 1.68-1.37l4.78.44s3.81.59 2.5 4.4c-1.32 3.8-1.76 5.12-4.7 5.12H8.88a4.25 4.25 0 0 1-4.24-4.24v0l-.15-8.2"/></svg>