<svg xmlns="http://www.w3.org/2000/svg" fill="none" stroke-width="1.5" viewBox="0 0 24 24"><path stroke="currentColor" stroke-linecap="round" stroke-linejoin="round" d="M22 7V5a2 2 0 0 0-2-2H4a2 2 0 0 0-2 2v14c0 1.1.9 2 2 2h16a2 2 0 0 0 2-2v-2"/><path stroke="currentColor" d="M2 12h4m0-9v18"/><path stroke="currentColor" stroke-linecap="round" stroke-linejoin="round" d="M19.25 12H11m7.7 0-.82 3h-1.65m1.37-3-1.1-3h-1.93M22 12c0-.75-.62-1.36-1.37-1.36s-1.38.6-1.38 1.36c0 .75.62 1.36 1.38 1.36S22 12.76 22 12"/></svg>