<svg xmlns="http://www.w3.org/2000/svg" fill="none" stroke-width="1.5" viewBox="0 0 24 24"><path stroke="currentColor" stroke-linecap="round" stroke-linejoin="round" d="M21.17 8a10 10 0 0 0-19.12 3"/><path stroke="currentColor" stroke-linecap="round" stroke-linejoin="round" d="M18 8h3.4a.6.6 0 0 0 .6-.6V4M2.88 16A10 10 0 0 0 22 13"/><path stroke="currentColor" stroke-linecap="round" stroke-linejoin="round" d="M6.05 16h-3.4a.6.6 0 0 0-.6.6V20"/><path fill="currentColor" stroke="currentColor" stroke-linecap="round" stroke-linejoin="round" d="M14.5 15a.5.5 0 1 0 0-1 .5.5 0 0 0 0 1m-5-5a.5.5 0 1 0 0-1 .5.5 0 0 0 0 1"/><path stroke="currentColor" stroke-linecap="round" stroke-linejoin="round" d="m15 9-6 6"/></svg>