<svg xmlns="http://www.w3.org/2000/svg" fill="none" stroke-width="1.5" viewBox="0 0 24 24"><path stroke="currentColor" d="M13.9 18h-3.8a.6.6 0 0 1-.6-.6v-2.3a.6.6 0 0 0-.6-.6H6.6a.6.6 0 0 1-.6-.6v-3.8c0-.33.27-.6.6-.6h2.3a.6.6 0 0 0 .6-.6V6.6c0-.33.27-.6.6-.6h3.8c.33 0 .6.27.6.6v2.3c0 .33.27.6.6.6h2.3c.33 0 .6.27.6.6v3.8a.6.6 0 0 1-.6.6h-2.3a.6.6 0 0 0-.6.6v2.3a.6.6 0 0 1-.6.6Z"/><path stroke="currentColor" stroke-linecap="round" stroke-linejoin="round" d="M12 22a10 10 0 1 0 0-20 10 10 0 0 0 0 20"/></svg>