<svg xmlns="http://www.w3.org/2000/svg" fill="none" stroke-width="1.5" viewBox="0 0 24 24"><path stroke="currentColor" stroke-linecap="round" stroke-linejoin="round" d="M14.5 8.5c-.78-.2-1.87-.5-2.74-.5C7.48 8 4 10.67 4 13.96c0 1.89 1.15 3.57 2.94 4.67l-.49 1.6a.6.6 0 0 0 .58.77h1.76a.6.6 0 0 0 .36-.12l1.4-1.05h2.43l1.4 1.05q.16.12.36.12h1.76c.4 0 .7-.39.58-.77l-.49-1.6a6.4 6.4 0 0 0 2.41-2.5M14.5 8.5 19 7l-.08 3.63 2.08.87V15l-1.93 1"/><path fill="black" stroke="currentColor" stroke-linecap="round" stroke-linejoin="round" d="M15.5 13a.5.5 0 1 1 0-1 .5.5 0 0 1 0 1"/><path stroke="currentColor" stroke-linecap="round" stroke-linejoin="round" d="M2 10s0 2.4 2 3"/><path stroke="currentColor" stroke-linejoin="round" d="M12.8 7.75q.2-.56.2-1.19A3.53 3.53 0 0 0 9.5 3a3.59 3.59 0 0 0-2.56 6"/></svg>