<svg xmlns="http://www.w3.org/2000/svg" fill="none" stroke-width="1.5" viewBox="0 0 24 24"><path stroke="currentColor" stroke-linecap="round" stroke-linejoin="round" d="M6 19a9.98 9.98 0 0 1 6-18 10 10 0 0 1 6 18"/><path stroke="currentColor" stroke-linecap="round" stroke-linejoin="round" d="M6 19a9.98 9.98 0 0 1 6-18 10 10 0 0 1 6 18"/><path stroke="currentColor" stroke-linecap="round" stroke-linejoin="round" d="M7.53 15a6 6 0 1 1 8.94 0"/><path stroke="currentColor" stroke-linecap="round" stroke-linejoin="round" d="M12 13a2 2 0 1 0 0-4 2 2 0 0 0 0 4m-1.92 3.28.81-.54a2 2 0 0 1 2.22 0l.81.54a2 2 0 0 1 .87 2l-.51 3.05A2 2 0 0 1 12.3 23h-.62a2 2 0 0 1-1.97-1.67l-.5-3.05a2 2 0 0 1 .86-2"/></svg>