<svg xmlns="http://www.w3.org/2000/svg" fill="none" stroke-width="1.5" viewBox="0 0 24 24"><path stroke="currentColor" stroke-linecap="round" stroke-linejoin="round" d="M12 22a10 10 0 1 1 0-20 10 10 0 0 1 0 20"/><path stroke="currentColor" stroke-linecap="round" stroke-linejoin="round" d="M12 22c-2.2 0-4-4.48-4-10S9.8 2 12 2s4 4.48 4 10-1.8 10-4 10"/><path stroke="currentColor" stroke-linecap="round" stroke-linejoin="round" d="M9 21c-3-1-4-5.39-4-8.5s1.5-7 5-9.5m5 0c3 1 4 5.39 4 8.5s-1.5 7-5 9.5"/></svg>