<svg xmlns="http://www.w3.org/2000/svg" fill="none" stroke-width="1.5" viewBox="0 0 24 24"><path stroke="currentColor" d="M17.57 18h2.83a.6.6 0 0 0 .6-.6V11a4 4 0 0 0-4-4H7a4 4 0 0 0-4 4v6.4c0 .33.27.6.6.6h2.83M8 7V3.6c0-.33.27-.6.6-.6h6.8c.33 0 .6.27.6.6V7"/><path stroke="currentColor" d="M6.1 20.32 6.43 18l.5-3.48a.6.6 0 0 1 .59-.52h8.96c.3 0 .55.22.6.52l.5 3.48.32 2.32a.6.6 0 0 1-.6.68H6.7a.6.6 0 0 1-.6-.68Z"/><path stroke="currentColor" stroke-linecap="round" stroke-linejoin="round" d="m17 10.01.01-.01"/></svg>