<svg xmlns="http://www.w3.org/2000/svg" fill="none" stroke-width="1.5" viewBox="0 0 24 24"><path stroke="currentColor" stroke-linecap="round" stroke-linejoin="round" d="M20 12V5.75a.6.6 0 0 0-.18-.43l-3.14-3.14a.6.6 0 0 0-.43-.18H4.6a.6.6 0 0 0-.6.6v18.8c0 .33.27.6.6.6H13M8 10h8M8 6h4m-4 8h3"/><path stroke="currentColor" stroke-linecap="round" stroke-linejoin="round" d="M16 2v3.4c0 .33.27.6.6.6H20m0 9.13 2.55.64a.6.6 0 0 1 .44.59C22.82 22.12 19.5 23 19.5 23s-3.32-.88-3.5-6.64c0-.28.19-.52.45-.59l2.56-.64a2 2 0 0 1 .98 0"/></svg>