<svg xmlns="http://www.w3.org/2000/svg" fill="none" stroke-width="1.5" viewBox="0 0 24 24"><path stroke="currentColor" stroke-linecap="round" stroke-linejoin="round" d="M15 12v3M12 3v3m6 6v3m-6 3h9m-3 3h3M6 12h3m6 9.01.01-.01m-3.01.01.01-.01M21 12.01l.01-.01M21 15.01l.01-.01M18 6.01l.01-.01M9 3.6v4.8a.6.6 0 0 1-.6.6H3.6a.6.6 0 0 1-.6-.6V3.6c0-.33.27-.6.6-.6h4.8c.33 0 .6.27.6.6m12 0v4.8a.6.6 0 0 1-.6.6h-4.8a.6.6 0 0 1-.6-.6V3.6c0-.33.27-.6.6-.6h4.8c.33 0 .6.27.6.6M6 18.01l.01-.01M9 15.6v4.8a.6.6 0 0 1-.6.6H3.6a.6.6 0 0 1-.6-.6v-4.8c0-.33.27-.6.6-.6h4.8c.33 0 .6.27.6.6"/></svg>