<svg xmlns="http://www.w3.org/2000/svg" fill="none" stroke-width="1.5" viewBox="0 0 24 24"><path stroke="currentColor" stroke-linecap="round" d="M4 6V3.6c0-.33.27-.6.6-.6h14.8c.33 0 .6.27.6.6V6M4 18v2.4c0 .33.27.6.6.6h14.8a.6.6 0 0 0 .6-.6V18"/><path stroke="currentColor" stroke-linecap="round" stroke-linejoin="round" d="M16.5 9v6l1.5-3 1.5 3V9m-9 6v-3m0 0v-1.5c0-.83.67-1.5 1.5-1.5v0c.83 0 1.5.67 1.5 1.5V12m-3 0h3m0 0v3m-9 0V9h2.4c.33 0 .6.27.6.6v.9c0 .83-.67 1.5-1.5 1.5v0"/><path stroke="currentColor" stroke-linecap="round" stroke-linejoin="round" d="M4.5 12H6v0c.83 0 1.5.67 1.5 1.5V15"/></svg>