<svg xmlns="http://www.w3.org/2000/svg" fill="none" stroke-width="1.5" viewBox="0 0 24 24"><path stroke="currentColor" stroke-linecap="round" d="M11 21H4a2 2 0 0 1-2-2V5c0-1.1.9-2 2-2h16a2 2 0 0 1 2 2v7"/><path stroke="currentColor" stroke-linecap="round" stroke-linejoin="round" d="M2 7h20m-.35 9.69A4 4 0 0 0 17.99 14a4.1 4.1 0 0 0-3.8 3"/><path stroke="currentColor" stroke-linecap="round" stroke-linejoin="round" d="M20 16.77h1.4a.6.6 0 0 0 .6-.6v-1.62m-7.67 4.78A4 4 0 0 0 18.01 22a4.1 4.1 0 0 0 3.8-3"/><path stroke="currentColor" stroke-linecap="round" stroke-linejoin="round" d="M16 19.23h-1.4a.6.6 0 0 0-.6.6v1.62"/></svg>