<svg xmlns="http://www.w3.org/2000/svg" fill="none" stroke-width="1.5" viewBox="0 0 24 24"><path stroke="currentColor" stroke-linecap="round" stroke-linejoin="round" d="m17.5 12 2 2.67a2 2 0 0 1-.12 2.55l-3.79 4.13a2 2 0 0 1-1.47.65H9.5c-2.36 0-3.62-2.58-3.98-3.93l-.02-.14v-8.5c0-2.29 3-2.29 3 0V10"/><path stroke="currentColor" stroke-linecap="round" stroke-linejoin="round" d="M11.5 10V8.29c0-2.29-3-2.29-3 0V10m6 0V7.5c0-2.29-3-2.29-3 0q0 0 0 0V10m3 0V3.5c0-.83.67-1.5 1.5-1.5v0c.83 0 1.5.67 1.5 1.5V15"/><path stroke="currentColor" d="M17.56 6.5h2.07c.87 0 1.37-.42 1.37-1.25S20.5 4 19.63 4h-7.38C11.56 4 11 4.56 11 5.25v.25a1 1 0 0 0 1 1"/></svg>