<svg xmlns="http://www.w3.org/2000/svg" fill="none" stroke-width="1.5" viewBox="0 0 24 24"><path stroke="currentColor" stroke-linecap="round" stroke-linejoin="round" d="M2.05 3v4.5c0 .27.23.5.5.5v0q.32-.01.47-.3A10 10 0 0 1 22 11m0 10v-4.5a.5.5 0 0 0-.5-.5v0q-.32.02-.47.3A10 10 0 0 1 2.05 13"/><path stroke="currentColor" stroke-linecap="round" stroke-linejoin="round" d="M6 16.4v-7c0-.34.27-.6.6-.6h1.17c.2 0 .4-.11.5-.28l1.45-2.24a.6.6 0 0 1 .5-.28h3.55c.2 0 .4.1.5.28l1.45 2.24q.18.26.5.27h1.18c.33 0 .6.27.6.6v7.01a.6.6 0 0 1-.6.6H6.6a.6.6 0 0 1-.6-.6"/><path stroke="currentColor" stroke-linecap="round" stroke-linejoin="round" d="M12 14a2 2 0 1 0 0-4 2 2 0 0 0 0 4"/></svg>