<svg xmlns="http://www.w3.org/2000/svg" fill="none" stroke-width="1.5" viewBox="0 0 24 24"><path stroke="currentColor" stroke-linecap="round" stroke-linejoin="round" d="M9 6.6v1.8a.6.6 0 0 1-.6.6H6.6a.6.6 0 0 1-.6-.6V6.6c0-.33.27-.6.6-.6h1.8c.33 0 .6.27.6.6M6 12h3m6 0v3m-3 3h3m3-5.99.01-.01M18 15.01l.01-.01M18 18.01l.01-.01M9 15.6v1.8a.6.6 0 0 1-.6.6H6.6a.6.6 0 0 1-.6-.6v-1.8c0-.33.27-.6.6-.6h1.8c.33 0 .6.27.6.6m9-9v1.8a.6.6 0 0 1-.6.6h-1.8a.6.6 0 0 1-.6-.6V6.6c0-.33.27-.6.6-.6h1.8c.33 0 .6.27.6.6M18 3h3v3m-3 15h3v-3M6 3H3v3m3 15H3v-3"/></svg>