<svg xmlns="http://www.w3.org/2000/svg" fill="none" stroke-width="1.5" viewBox="0 0 24 24"><path stroke="currentColor" stroke-linecap="round" stroke-linejoin="round" d="M10 21.4v-7c0-.34.27-.6.6-.6h1.17c.2 0 .4-.11.5-.28l1.45-2.24a.6.6 0 0 1 .5-.28h3.55c.2 0 .4.1.5.28l1.45 2.24q.18.26.5.27h1.18c.33 0 .6.27.6.6v7.01a.6.6 0 0 1-.6.6H10.6a.6.6 0 0 1-.6-.6"/><path stroke="currentColor" stroke-linecap="round" stroke-linejoin="round" d="M16 19a2 2 0 1 0 0-4 2 2 0 0 0 0 4M3 18v3h2.5M3 9.5v5M3 6V3h3m3.5 0h5M18 3h3v2.5m0 4.5V8.5"/></svg>