<svg xmlns="http://www.w3.org/2000/svg" fill="none" stroke-width="1.5" viewBox="0 0 24 24"><path stroke="currentColor" stroke-linecap="round" stroke-linejoin="round" d="M21 7.35v9.3a.6.6 0 0 1-.3.52l-8.4 4.67a.6.6 0 0 1-.6 0l-8.4-4.67a.6.6 0 0 1-.3-.52v-9.3a.6.6 0 0 1 .3-.52l8.4-4.67q.3-.15.6 0l8.4 4.67q.29.17.3.52"/><path stroke="currentColor" stroke-linecap="round" stroke-linejoin="round" d="m3.53 7.3 8.18 4.54q.29.15.58 0l8.21-4.56M12 21v-9"/><path fill="currentColor" stroke="currentColor" stroke-linejoin="round" d="M11.7 11.83 3.9 7.5a.6.6 0 0 0-.9.52v8.63c0 .21.12.42.3.52l7.8 4.33c.4.23.9-.06.9-.52v-8.63a.6.6 0 0 0-.3-.52Z"/></svg>