<svg xmlns="http://www.w3.org/2000/svg" fill="none" stroke-width="1.5" viewBox="0 0 24 24"><path stroke="currentColor" d="M11.6 2.34a.6.6 0 0 1 .8 0l1.94 1.7q.2.15.45.14l2.57-.22a.6.6 0 0 1 .64.46l.58 2.51q.05.25.27.38l2.21 1.33a.6.6 0 0 1 .25.75l-1.01 2.38a.6.6 0 0 0 0 .46l1 2.38a.6.6 0 0 1-.24.75l-2.2 1.33a.6.6 0 0 0-.28.38L18 19.58a.6.6 0 0 1-.64.46l-2.57-.22a.6.6 0 0 0-.45.15l-1.95 1.69a.6.6 0 0 1-.78 0l-1.95-1.7a.6.6 0 0 0-.45-.14l-2.57.22a.6.6 0 0 1-.64-.46l-.58-2.51a.6.6 0 0 0-.27-.38l-2.21-1.33a.6.6 0 0 1-.25-.75l1.01-2.38a.6.6 0 0 0 0-.46l-1-2.38a.6.6 0 0 1 .24-.75l2.2-1.33a.6.6 0 0 0 .28-.38L6 4.42a.6.6 0 0 1 .64-.46l2.57.22a.6.6 0 0 0 .45-.15z"/><path stroke="currentColor" stroke-linecap="round" stroke-linejoin="round" d="m9 13 2 2 5-5"/></svg>