<svg xmlns="http://www.w3.org/2000/svg" fill="none" stroke-width="1.5" viewBox="0 0 24 24"><path stroke="currentColor" d="M3 10v9c0 1.1.9 2 2 2h14a2 2 0 0 0 2-2v-9"/><path stroke="currentColor" stroke-miterlimit="16" d="M14.83 21v-6a2 2 0 0 0-2-2h-2a2 2 0 0 0-2 2v6"/><path stroke="currentColor" d="m21.82 9.36-1.7-5.92a.6.6 0 0 0-.57-.44H15.5l.48 5.7q.02.3.27.45c.4.24 1.16.67 1.75.85 1.02.31 2.5.2 3.35.1.35-.05.57-.4.47-.74ZM14 10a9 9 0 0 0 1.7-.81.6.6 0 0 0 .27-.55L15.5 3h-7l-.47 5.64q-.02.35.28.55c.4.24 1.12.64 1.69.81 1.5.46 2.5.46 4 0Z"/><path stroke="currentColor" d="m3.88 3.44-1.7 5.92c-.1.34.12.7.47.74.85.1 2.33.21 3.35-.1.6-.18 1.36-.61 1.75-.85Q8 9 8.02 8.7L8.5 3H4.45a.6.6 0 0 0-.57.44Z"/></svg>