<svg xmlns="http://www.w3.org/2000/svg" fill="none" stroke-width="1.5" viewBox="0 0 24 24"><path stroke="currentColor" stroke-linecap="round" stroke-linejoin="round" d="m12 8 3.8 2.76M12 8l-3.8 2.76M12 8V5m3.8 5.76-1.45 4.48m1.45-4.48 2.7-1.26m-4.15 5.74h-4.7m4.7 0L16 17.5m-6.35-2.26L8.2 10.76m1.45 4.48L8 17.5m.2-6.74L5.5 9.5m0 0L2.05 13M5.5 9.5l-1-4.11m14 4.11 3.45 3.5M18.5 9.5l1-4.11M12 5 8.62 2.58M12 5l3.38-2.42M8 17.5 3.34 17m4.66.5 2.5 4.39M16 17.5l4.66-.5m-4.66.5-2.5 4.39M22 12a10 10 0 1 1-20 0 10 10 0 0 1 20 0"/></svg>