<svg xmlns="http://www.w3.org/2000/svg" fill="none" stroke-width="1.5" viewBox="0 0 24 24"><path stroke="currentColor" stroke-linecap="round" stroke-linejoin="round" d="m18 7.5.92.15a2 2 0 0 1 1.62 2.41l-.53 2.38-.01.13v4.93q0 0 0 0c0 2-1.6 4-4 4H9.42a2 2 0 0 1-1.52-.7l-4.55-5.3c-.5-.58-.5-1.43-.03-2.02v0c.61-.77 1.78-.8 2.43-.06L8 16v-3.5"/><path stroke="currentColor" stroke-linecap="round" stroke-linejoin="round" d="m9 5-.79.13a2 2 0 0 0-1.6 2.52L8 12.5m3 0L8.92 4.6a1.5 1.5 0 0 1 1.22-1.87v0c.77-.13 1.51.35 1.71 1.1L14 12m3 .5 1-5 .25-1.48a1.54 1.54 0 0 0-1.27-1.77v0c-.82-.14-1.6.4-1.76 1.23L14 12"/></svg>