<svg xmlns="http://www.w3.org/2000/svg" fill="none" stroke-width="1.5" viewBox="0 0 24 24"><path stroke="currentColor" stroke-linecap="round" stroke-linejoin="round" d="M12.82 3a.91.91 0 0 0-1.64 0l-.5 1M12 18.68l-1.57.82m-4.76-.13-.18 1.07a.9.9 0 0 0 1.32.95l.84-.44M6.25 16l.23-1.3-.7-.68M3.7 12l-1.42-1.38a.9.9 0 0 1 .5-1.54l1.1-.16M7 8.47l1.59-.23.8-1.62"/><path stroke="currentColor" stroke-linecap="round" stroke-linejoin="round" d="M15.41 8.24 12.81 3a.9.9 0 0 0-.81-.5v16.18l5.2 2.71a.9.9 0 0 0 1.31-.95l-.99-5.75 4.2-4.07a.9.9 0 0 0-.5-1.54z"/></svg>