<svg xmlns="http://www.w3.org/2000/svg" fill="none" stroke-width="1.5" viewBox="0 0 24 24"><path stroke="currentColor" stroke-linecap="round" stroke-linejoin="round" d="m13.8 5-.98-2a.91.91 0 0 0-1.64 0l-.5 1m4.33 3.43.4.8 1.45.22m2.91.42 1.45.21a.9.9 0 0 1 .5 1.54l-1.05 1.02m-2.1 2.03-1.05 1.02.25 1.44m.5 2.87.24 1.44a.9.9 0 0 1-1.32.95l-1.3-.68m-5.46-1.21 1.57-.82 1.3.68m-7.63.01-.18 1.07a.9.9 0 0 0 1.32.95l.84-.44M6.25 16l.23-1.3-.7-.68M3.7 12l-1.42-1.38a.9.9 0 0 1 .5-1.54l1.1-.16M7 8.47l1.59-.23.8-1.62"/></svg>