<svg xmlns="http://www.w3.org/2000/svg" fill="none" stroke-width="1.5" viewBox="0 0 24 24"><path stroke="currentColor" stroke-linecap="round" stroke-linejoin="round" d="M12 22a10 10 0 1 0 0-20 10 10 0 0 0 0 20"/><path fill="currentColor" stroke="currentColor" stroke-linecap="round" stroke-linejoin="round" d="M5 6a1 1 0 1 0 0-2 1 1 0 0 0 0 2"/><path stroke="currentColor" stroke-linecap="round" stroke-linejoin="round" d="M5 10.5V9m0 6v-1.5"/><path fill="currentColor" stroke="currentColor" stroke-linecap="round" stroke-linejoin="round" d="M5 20a1 1 0 1 0 0-2 1 1 0 0 0 0 2m14 0a1 1 0 1 0 0-2 1 1 0 0 0 0 2"/><path stroke="currentColor" stroke-linecap="round" stroke-linejoin="round" d="M10.5 19H9m6 0h-1.5"/></svg>