<svg xmlns="http://www.w3.org/2000/svg" fill="none" stroke-width="1.5" viewBox="0 0 24 24"><path stroke="currentColor" stroke-linecap="round" stroke-linejoin="round" d="m4.63 14.42 1.04-2.2a.36.36 0 0 1 .66 0l1.04 2.2 2.32.35c.3.05.42.43.2.65l-1.68 1.71.4 2.42c.05.32-.27.55-.53.4L6 18.82l-2.08 1.15c-.26.14-.58-.1-.53-.4l.4-2.43-1.68-1.71c-.22-.22-.1-.6.2-.65zm12 0 1.04-2.2a.36.36 0 0 1 .66 0l1.04 2.2 2.32.35c.3.05.42.43.2.65l-1.68 1.71.4 2.42c.05.32-.27.55-.53.4L18 18.82l-2.08 1.15c-.26.14-.58-.1-.53-.4l.4-2.43-1.68-1.71c-.22-.22-.1-.6.2-.65zm-6-9 1.04-2.2a.36.36 0 0 1 .66 0l1.04 2.2 2.32.35c.3.05.42.43.2.65l-1.68 1.71.4 2.42c.05.32-.27.55-.53.4L12 9.82l-2.08 1.15c-.26.14-.58-.1-.53-.4l.4-2.43-1.68-1.71c-.22-.22-.1-.6.2-.65z"/></svg>