<svg xmlns="http://www.w3.org/2000/svg" fill="none" stroke-width="1.5" viewBox="0 0 24 24"><path stroke="currentColor" stroke-linecap="round" stroke-linejoin="round" d="M19.86 15.2A3.99 3.99 0 0 0 13 18c0 1.09.44 2.08 1.14 2.8m5.72-5.6A3.99 3.99 0 0 1 17 22a4 4 0 0 1-2.86-1.2m5.72-5.6-5.72 5.6"/><path stroke="currentColor" stroke-linecap="round" stroke-linejoin="round" d="M9 22H7a2 2 0 0 1-2-2v-8.82a.6.6 0 0 0-.1-.33l-1.8-2.7a.6.6 0 0 1-.1-.33V2.6c0-.33.27-.6.6-.6h1.8c.33 0 .6.27.6.6v1.8c0 .33.27.6.6.6h2.8a.6.6 0 0 0 .6-.6V2.6c0-.33.27-.6.6-.6h2.8c.33 0 .6.27.6.6v1.8c0 .33.27.6.6.6h2.8a.6.6 0 0 0 .6-.6V2.6c0-.33.27-.6.6-.6h1.8c.33 0 .6.27.6.6v5.22a.6.6 0 0 1-.1.33L20 9.5"/></svg>