<svg xmlns="http://www.w3.org/2000/svg" fill="none" stroke-width="1.5" viewBox="0 0 24 24"><path stroke="currentColor" stroke-linecap="round" stroke-linejoin="round" d="M9.6 7h4.8A2.6 2.6 0 0 1 17 9.6a.4.4 0 0 1-.4.4H7.4a.4.4 0 0 1-.4-.4A2.6 2.6 0 0 1 9.6 7"/><path stroke="currentColor" stroke-linecap="round" stroke-linejoin="round" d="M9 3h6a6 6 0 0 1 6 6v4a6 6 0 0 1-6 6H9a6 6 0 0 1-6-6V9a6 6 0 0 1 6-6m7 12.01.01-.01M8 15.01"/><path stroke="currentColor" stroke-linecap="round" d="m10.5 19-2 2.5m5-2.5 2 2.5m1-2.5 2 2.5M7.5 19l-2 2.5"/></svg>