<svg xmlns="http://www.w3.org/2000/svg" fill="none" stroke-width="1.5" viewBox="0 0 24 24"><path stroke="currentColor" stroke-linecap="round" stroke-linejoin="round" d="m15 16.01.01-.01M9 16.01l.01-.01M13 6h2a5 5 0 0 1 5 5v7a2 2 0 0 1-2 2H6a2 2 0 0 1-2-2v-7a5 5 0 0 1 5-5zm0 0 1-4m0 0h3m-3 0H7"/><path stroke="currentColor" stroke-linecap="round" d="m10.5 20-2 2.5m5-2.5 2 2.5m1-2.5 2 2.5M7.5 20l-2 2.5"/><path stroke="currentColor" stroke-linecap="round" stroke-linejoin="round" d="M9.6 9h4.8a2.6 2.6 0 0 1 2.6 2.6.4.4 0 0 1-.4.4H7.4a.4.4 0 0 1-.4-.4A2.6 2.6 0 0 1 9.6 9"/></svg>