<svg xmlns="http://www.w3.org/2000/svg" fill="none" stroke-width="1.5" viewBox="0 0 24 24"><path stroke="currentColor" stroke-linecap="round" stroke-linejoin="round" d="M19 3H5a2 2 0 0 0-2 2v14c0 1.1.9 2 2 2h14a2 2 0 0 0 2-2V5a2 2 0 0 0-2-2"/><path stroke="currentColor" stroke-linecap="round" stroke-linejoin="round" d="M10.4 6H6.6a.6.6 0 0 0-.6.6v10.8c0 .33.27.6.6.6h3.8a.6.6 0 0 0 .6-.6V6.6a.6.6 0 0 0-.6-.6m7 0h-3.8a.6.6 0 0 0-.6.6v6.8c0 .33.27.6.6.6h3.8a.6.6 0 0 0 .6-.6V6.6a.6.6 0 0 0-.6-.6"/></svg>