<svg xmlns="http://www.w3.org/2000/svg" fill="none" stroke-width="1.5" viewBox="0 0 24 24"><path stroke="currentColor" stroke-linecap="round" stroke-linejoin="round" stroke-miterlimit="1.5" d="M7 17a2 2 0 1 0 0-4 2 2 0 0 0 0 4"/><path stroke="currentColor" stroke-linecap="round" d="M14 15V4.6a.6.6 0 0 0-.6-.6H2.6a.6.6 0 0 0-.6.6v9.8c0 .33.27.6.6.6h2.05M14 15H9.05M14 7h5.61a.6.6 0 0 1 .55.36l1.29 2.9.05.24V12"/><path stroke="currentColor" stroke-linecap="round" stroke-linejoin="round" d="M17 23s.9-3.12 3-5"/><path stroke="currentColor" stroke-linecap="round" stroke-linejoin="round" d="m19.8 21.42-.13.02a3.1 3.1 0 0 1-3.37-2.78 3.06 3.06 0 0 1 2.76-3.35l2.99-.28c.2-.02.36.13.38.32l.25 2.58a3.2 3.2 0 0 1-2.88 3.5"/></svg>