<svg xmlns="http://www.w3.org/2000/svg" fill="none" stroke-width="1.5" viewBox="0 0 24 24"><path stroke="currentColor" d="M19.78 4.04A11.3 11.3 0 0 0 12 1C9.06 1 6.3 2.08 4.22 4.04A10 10 0 0 0 1 11.4c0 .34.29.61.64.61s.65-.27.65-.6a1.9 1.9 0 0 1 1.94-1.85c1.9 0 1.2 2.45 2.6 2.45 1.38 0 .69-2.45 2.58-2.45S12 12 12 12s.7-2.45 2.59-2.45c1.9 0 1.4 2.45 2.59 2.45s.7-2.45 2.59-2.45a1.9 1.9 0 0 1 1.94 1.84c0 .34.29.61.65.61.35 0 .64-.27.64-.6 0-2.78-1.14-5.4-3.22-7.36Z"/><path stroke="currentColor" stroke-linecap="round" stroke-linejoin="round" d="M12 12v8c0 4-6 4-6 0"/></svg>