<svg xmlns="http://www.w3.org/2000/svg" fill="none" stroke-width="1.5" viewBox="0 0 24 24"><path stroke="currentColor" stroke-linecap="round" stroke-linejoin="round" d="M21 3.6v16.8a.6.6 0 0 1-.6.6H3.6a.6.6 0 0 1-.6-.6V3.6c0-.33.27-.6.6-.6h16.8c.33 0 .6.27.6.6"/><path stroke="currentColor" stroke-linecap="round" stroke-linejoin="round" d="M14.5 10.5C12.75 12.38 11 17 11 17s-2.5-6.5-5-8"/><path stroke="currentColor" stroke-linecap="round" stroke-linejoin="round" d="m18.02 6.73.3 3.08c.18 2-1.31 3.78-3.31 3.97a3.57 3.57 0 1 1-.72-7.1l3.28-.31a.4.4 0 0 1 .45.36"/></svg>