<svg xmlns="http://www.w3.org/2000/svg" fill="none" stroke-width="1.5" viewBox="0 0 24 24"><path stroke="currentColor" stroke-linecap="round" stroke-linejoin="round" d="M7 10h8m-9 4h1m8 0h1"/><path stroke="currentColor" stroke-linecap="round" d="M6 18H2v2.4c0 .33.27.6.6.6h2.8a.6.6 0 0 0 .6-.6zm0 0h7M2 18v-6.59a2 2 0 0 1 .16-.79l2.32-5.4A2 2 0 0 1 6.32 4h9.36a2 2 0 0 1 1.84 1.21l2.32 5.41a2 2 0 0 1 .16.8v1.08"/><path stroke="currentColor" stroke-linecap="round" stroke-linejoin="round" d="M17 23s.9-3.12 3-5"/><path stroke="currentColor" stroke-linecap="round" stroke-linejoin="round" d="m19.8 21.42-.13.02a3.1 3.1 0 0 1-3.37-2.78 3.06 3.06 0 0 1 2.76-3.35l2.99-.28c.2-.02.36.13.38.32l.25 2.58a3.2 3.2 0 0 1-2.88 3.5"/></svg>