<svg xmlns="http://www.w3.org/2000/svg" fill="none" stroke-width="1.5" viewBox="0 0 24 24"><path stroke="currentColor" stroke-linecap="round" stroke-linejoin="round" d="M14 21.8q-.98.2-2 .2a10 10 0 1 1 9.97-9.25M12 6v12M9 9v6m9-4v2M6 11v2m9-6v10"/><path stroke="currentColor" stroke-linecap="round" stroke-linejoin="round" d="M21.17 18.5h.23c.33 0 .6.27.6.6v2.3a.6.6 0 0 1-.6.6h-3.8a.6.6 0 0 1-.6-.6v-2.3c0-.33.27-.6.6-.6h.23m3.34 0v-1.75c0-.58-.34-1.75-1.67-1.75s-1.67 1.17-1.67 1.75v1.75m3.34 0h-3.34"/></svg>