<svg xmlns="http://www.w3.org/2000/svg" fill="none" stroke-width="1.5" viewBox="0 0 24 24"><path stroke="currentColor" stroke-linecap="round" stroke-linejoin="round" d="M18.4 4s-1.6 3.75-1.6 6.86c0 1 .34 1.82.8 2.65.53.96 1.21 1.9 1.72 3.1.4.94.68 2.03.68 3.39M5.6 4s1.6 3.75 1.6 6.86c0 1-.34 1.82-.8 2.65-.53.96-1.21 1.9-1.72 3.1-.4.94-.68 2.03-.68 3.39m2.4-6.49h11.2"/><path stroke="currentColor" stroke-linecap="round" stroke-linejoin="round" d="M4.68 16.6S10.4 17.71 12 20c1.6-2.29 7.32-3.4 7.32-3.4"/></svg>