<svg xmlns="http://www.w3.org/2000/svg" fill="none" stroke-width="1.5" viewBox="0 0 24 24"><path stroke="currentColor" stroke-linecap="round" d="M4 6V3.6c0-.33.27-.6.6-.6h14.8c.33 0 .6.27.6.6V6M4 18v2.4c0 .33.27.6.6.6h14.8a.6.6 0 0 0 .6-.6V18"/><path stroke="currentColor" stroke-linecap="round" stroke-linejoin="round" d="M13.5 15V9h2.4c.33 0 .6.27.6.6v.9c0 .83-.67 1.5-1.5 1.5v0"/><path stroke="currentColor" stroke-linecap="round" stroke-linejoin="round" d="M13.5 15h2.4a.6.6 0 0 0 .6-.6v-.9c0-.83-.67-1.5-1.5-1.5v0h-1.5m6 3v-3m0 0V9h3v3zm-18-3v6L3 12l1.5 3V9m6 0h-3v6h3m-3-3h2"/></svg>