<svg xmlns="http://www.w3.org/2000/svg" fill="none" stroke-width="1.5" viewBox="0 0 24 24"><path stroke="currentColor" stroke-linecap="round" stroke-linejoin="round" d="M5.81 7s-.45.63-1 1.67M18.2 7s.45.63 1 1.67m-14.37 0C4 10.2 3 12.67 3 15.33c2.81 0 4.5 1.67 4.5 1.67s1.12 5 4.5 5 4.5-5 4.5-5 1.69-1.67 4.5-1.67c0-2.66-1-5.12-1.82-6.66m-14.36 0S1.88 6.44 4.82 2c1 .56 3.8 2.78 3.8 2.78s1.7-1.11 3.38-1.11a7 7 0 0 1 3.38 1.1s2.8-2.2 3.92-2.77c2.82 4.44-.13 6.67-.13 6.67M11 18h1m1 0h-1m0 0v1m-3.5-6.5L10 14m5.5-1.5L14 14"/></svg>