<svg xmlns="http://www.w3.org/2000/svg" fill="none" stroke-width="1.5" viewBox="0 0 24 24"><path stroke="currentColor" stroke-linecap="round" stroke-linejoin="round" d="m14.57 15 .86 1.85s3.86.82 3.86 2.77c0 1.38-1.72 1.38-1.72 1.38H13l-2.25-1.25"/><path stroke="currentColor" stroke-linecap="round" stroke-linejoin="round" d="m9.43 15-.86 1.85s-3.86.82-3.86 2.77C4.71 21 6.43 21 6.43 21H8.5l2.25-1.25L13.5 18"/><path stroke="currentColor" stroke-linecap="round" stroke-linejoin="round" d="M3 15.93s2.14-.47 3.43-.93C7.7 8.55 11.57 9 12 9s4.29-.45 5.57 6c1.29.46 3.43.93 3.43.93M12 7a2 2 0 1 0 0-4 2 2 0 0 0 0 4"/></svg>