<svg xmlns="http://www.w3.org/2000/svg" fill="none" stroke-width="1.5" viewBox="0 0 24 24"><path fill="currentColor" stroke="currentColor" stroke-linecap="round" stroke-linejoin="round" d="m14 12-3.5 2v-4z"/><path stroke="currentColor" d="M2 12.7v-1.4c0-2.9 0-4.35.9-5.28.91-.93 2.34-.97 5.19-1.05 1.35-.04 2.73-.07 3.91-.07s2.56.03 3.91.07c2.85.08 4.28.12 5.18 1.05.91.93.91 2.38.91 5.27v1.42c0 2.9 0 4.34-.9 5.27-.91.93-2.34.97-5.19 1.05-1.35.04-2.73.07-3.91.07s-2.56-.03-3.91-.07c-2.85-.08-4.28-.12-5.18-1.05C2 17.05 2 15.6 2 12.71Z"/></svg>