<svg xmlns="http://www.w3.org/2000/svg" fill="none" stroke="currentColor" stroke-linecap="round" stroke-linejoin="round" stroke-width="2" viewBox="0 0 24 24"><path d="M19.44 7.85c-.05.32.06.65.29.88l1.57 1.57a2.4 2.4 0 0 1 0 3.4l-1.61 1.62a1 1 0 0 1-.84.27c-.47-.07-.8-.48-.97-.92a2.5 2.5 0 1 0-3.21 3.21c.44.17.85.5.92.97a1 1 0 0 1-.27.83L13.7 21.3a2.4 2.4 0 0 1-1.7.7 2.4 2.4 0 0 1-1.7-.7l-1.57-1.57a1 1 0 0 0-.88-.3c-.47.08-.8.49-.97.93a2.5 2.5 0 1 1-3.21-3.21c.44-.17.85-.5.92-.97a1 1 0 0 0-.27-.84l-2.03-1.43a2.4 2.4 0 0 1-.7-1.7c0-.62.23-1.24.7-1.7L3.9 8.88a1 1 0 0 1 .84-.28c.47.07.8.48.97.93a2.5 2.5 0 1 0 3.21-3.21c-.44-.17-.85-.5-.92-.97a1 1 0 0 1 .27-.84l1.63-1.6a2.4 2.4 0 0 1 1.7-.7c.62 0 1.23.23 1.7.7l1.57 1.57c.23.23.56.34.88.29.47-.07.8-.48.97-.93a2.5 2.5 0 1 1 3.21 3.22c-.44.16-.85.5-.92.96Z"/></svg>