<svg xmlns="http://www.w3.org/2000/svg" viewBox="0 0 32 32"><path fill="currentColor" d="M26 22a4 4 0 0 0-2.02.57l-3.81-3.82a5 5 0 0 0 0-5.5l2.54-2.55a3.03 3.03 0 1 0-1.41-1.41l-2.55 2.54a5 5 0 0 0-5.5 0L9.43 8.02A4 4 0 0 0 10 6a4 4 0 1 0-4 4 4 4 0 0 0 2.02-.57l3.81 3.82a5 5 0 0 0 0 5.5l-3.81 3.82A4 4 0 0 0 6 22a4 4 0 1 0 4 4 4 4 0 0 0-.57-2.02l3.82-3.81a5 5 0 0 0 1.75.73v3.28a3 3 0 1 0 2 0V20.9a5 5 0 0 0 1.75-.73l3.82 3.81A4 4 0 0 0 22 26a4 4 0 1 0 4-4m-10-9a3 3 0 1 1-3 3 3 3 0 0 1 3-3M4 6a2 2 0 1 1 2 2 2 2 0 0 1-2-2m2 22a2 2 0 1 1 2-2 2 2 0 0 1-2 2m20 0a2 2 0 1 1 2-2 2 2 0 0 1-2 2"/></svg>