<svg xmlns="http://www.w3.org/2000/svg" viewBox="0 0 24 24"><g fill="none" stroke="currentColor" stroke-linecap="round" stroke-linejoin="round" stroke-width="2"><path d="M9.65 6.96a5.39 5.39 0 0 0 7.5 7.5"/><path d="M3 12a9 9 0 1 0 18 0 9 9 0 1 0-18 0"/><path d="M17.7 12.14a5.74 5.74 0 1 1-5.74-5.74"/><path d="M17.7 12.34v-1.18c0-.47.17-.92.48-1.25a1.6 1.6 0 0 1 1.14-.52c.83 0 1.53.68 1.62 1.57q.06.52.06 1.04m-9.34-5.6h1.18c.47 0 .92-.18 1.25-.49s.52-.74.52-1.18c0-.86-.68-1.57-1.57-1.67A10 10 0 0 0 12 3"/></g></svg>