<svg xmlns="http://www.w3.org/2000/svg" fill="none" stroke="currentColor" stroke-linecap="round" stroke-linejoin="round" stroke-width="2" viewBox="0 0 24 24"><path d="M12 5a3 3 0 1 0-6 .13 4 4 0 0 0-2.52 5.77 4 4 0 0 0 .55 6.58A4 4 0 1 0 12 18Z"/><path d="M9 13a4.5 4.5 0 0 0 3-4M6 5.13a3 3 0 0 0 .4 1.37m-2.92 4.4a4 4 0 0 1 .58-.4M6 18a4 4 0 0 1-1.97-.52M12 13h4m-4 5h6a2 2 0 0 1 2 2v1M12 8h8m-4 0V5a2 2 0 0 1 2-2"/><circle cx="16" cy="13" r=".5"/><circle cx="18" cy="3" r=".5"/><circle cx="20" cy="21" r=".5"/><circle cx="20" cy="8" r=".5"/></svg>