<svg xmlns="http://www.w3.org/2000/svg" fill="none" stroke="currentColor" stroke-linecap="round" stroke-linejoin="round" stroke-width="2" viewBox="0 0 24 24"><path d="m10.85 14.77-.38.93m.38-6.47-.38-.93m2.68 6.47.38.93m0-7.4-.38.93m1.62 1.62.93-.38m-.93 2.68.93.38m1.9-7.03A3 3 0 1 0 12 5a3 3 0 0 0-5.63-1.45A3 3 0 0 0 6 5.13a4 4 0 0 0-2.52 5.77"/><path d="M18 5.13a4 4 0 0 1 2.52 5.77"/><path d="M19.5 10.3A4 4 0 0 1 18 18"/><path d="M4.03 17.48A4 4 0 0 0 11.46 20c.18-.31.9-.31 1.08 0a4 4 0 0 0 7.43-2.52"/><path d="M4.5 10.3A4 4 0 0 0 6 18M6 5.13a3 3 0 0 0 .4 1.37m2.83 4.35-.93-.38m.93 2.68-.93.38"/><circle cx="12" cy="12" r="3"/></svg>