<svg xmlns="http://www.w3.org/2000/svg" fill="none" stroke="currentColor" stroke-linecap="round" stroke-linejoin="round" stroke-width="2" viewBox="0 0 24 24"><path d="M10 7v10.9m4-11.8V17m2-10V3a1 1 0 0 1 1.7-.7 2.5 2.5 0 0 0 2.16.71 1 1 0 0 1 1.13 1.13 2.5 2.5 0 0 0 .72 2.15A1 1 0 0 1 21 8h-4"/><path d="M16.54 7.47a5 5 0 0 0-7.08 0l-2 2a5 5 0 0 0 0 7.07 5 5 0 0 0 7.08 0l2-2a5 5 0 0 0 0-7.07"/><path d="M8 17v4a1 1 0 0 1-1.7.7 2.5 2.5 0 0 0-2.17-.7A1 1 0 0 1 3 19.87a2.5 2.5 0 0 0-.72-2.15A1 1 0 0 1 3 16h4"/></svg>