<svg xmlns="http://www.w3.org/2000/svg" fill="none" stroke="currentColor" stroke-linecap="round" stroke-linejoin="round" stroke-width="2" viewBox="0 0 24 24"><path d="M10 10v7.9m1.8-11.75a5 5 0 0 1 6.05 6.05M14 6.1v2.24m1.5 7.23-.96.96a5 5 0 0 1-7.07 0 5 5 0 0 1 0-7.07l.96-.96"/><path d="M16 7V3a1 1 0 0 1 1.7-.7 2.5 2.5 0 0 0 2.16.71 1 1 0 0 1 1.13 1.13 2.5 2.5 0 0 0 .72 2.15A1 1 0 0 1 21 8h-4M2 2l20 20M8 17v4a1 1 0 0 1-1.7.7 2.5 2.5 0 0 0-2.17-.7A1 1 0 0 1 3 19.87a2.5 2.5 0 0 0-.72-2.15A1 1 0 0 1 3 16h4"/></svg>