<svg xmlns="http://www.w3.org/2000/svg" fill="none" stroke="currentColor" stroke-linecap="round" stroke-linejoin="round" stroke-width="2" viewBox="0 0 24 24"><path d="M15.54 11.3a1 1 0 0 0 0 1.4l2.37 2.38a1 1 0 0 0 1.42 0l2.37-2.37a1 1 0 0 0 0-1.42l-2.37-2.37a1 1 0 0 0-1.42 0zm-13.24 0a1 1 0 0 0 0 1.4l2.37 2.38a1 1 0 0 0 1.42 0l2.37-2.37a1 1 0 0 0 0-1.42L6.1 8.92a1 1 0 0 0-1.42 0zm6.62 6.61a1 1 0 0 0 0 1.42l2.37 2.37a1 1 0 0 0 1.42 0l2.37-2.37a1 1 0 0 0 0-1.42l-2.37-2.37a1 1 0 0 0-1.42 0zm0-13.24a1 1 0 0 0 0 1.42l2.37 2.37a1 1 0 0 0 1.42 0l2.37-2.37a1 1 0 0 0 0-1.42L12.71 2.3a1 1 0 0 0-1.42 0z"/></svg>