<svg xmlns="http://www.w3.org/2000/svg" fill="none" stroke="currentColor" stroke-linecap="round" stroke-linejoin="round" stroke-width="2" viewBox="0 0 24 24"><path d="M10.2 18H4.77a1.5 1.5 0 0 1-1.35-.97 11 11 0 0 1 .13-6.49M18 10.2V4.77a1.5 1.5 0 0 0-.97-1.35 11 11 0 0 0-6.49.13"/><path d="M18 5a4 3 0 0 1 4 3 2 2 0 0 1-2 2 10 10 0 0 0-5.14 1.42M5 18a3 4 0 0 0 3 4 2 2 0 0 0 2-2 10 10 0 0 1 1.42-5.14M8.7 2.55a10 10 0 0 0-6.15 6.16 1.5 1.5 0 0 0 .68 1.62l9.8 5.42a2 2 0 0 0 2.72-2.71l-5.42-9.81a1.5 1.5 0 0 0-1.62-.68"/></svg>