<svg xmlns="http://www.w3.org/2000/svg" fill="none" stroke="currentColor" stroke-linecap="round" stroke-linejoin="round" stroke-width="2" viewBox="0 0 24 24"><path d="M11.25 16.25h1.5L12 17zM16 14v.5"/><path d="M4.42 11.25a13 13 0 0 0-.42 3.3C4 18.74 7.58 21 12 21s8-2.27 8-6.44a12 12 0 0 0-.5-3.31M8 14v.5"/><path d="M8.5 8.5A4 4 0 0 1 6.16 11c-1.93.72-3.58-.3-3.66-1-.11-1 1.18-6.53 4-7 1.92-.32 3.65.85 3.65 2.24a7.5 7.5 0 0 1 3.85.04c0-1.4 1.84-2.6 3.77-2.28 2.82.47 4.11 6 4 7-.08.7-1.73 1.72-3.66 1-1.26-.47-1.85-1.45-2.24-2.5"/></svg>