<svg xmlns="http://www.w3.org/2000/svg" fill="none" stroke="currentColor" stroke-linecap="round" stroke-linejoin="round" stroke-width="2" viewBox="0 0 24 24"><path d="M18 12.47v.03m0-.5v.47m-.47 5.06A7 7 0 0 1 15 18c-3.56 0-7.56-2.53-8.5-6a7.4 7.4 0 0 1 2.12-3.38m3.45-2.09A9 9 0 0 1 15 6c3.56 0 6.06 2.54 7 6a10 10 0 0 1-1.41 3.06"/><path d="M7 10.67C7 8 5.58 5.97 2.73 5.5c-1 1.5-1 5 .23 6.5-1.24 1.5-1.24 5-.23 6.5C5.58 18.03 7 16 7 13.33m7.48-4.37A10 10 0 0 1 16 6.07m0 11.86a10 10 0 0 1-1.73-3.62"/><path d="m16.01 17.93-.23 1.4A2 2 0 0 1 13.8 21H9.5a6 6 0 0 0 1.49-3.98M8.53 3h5.27a2 2 0 0 1 1.98 1.67l.23 1.4M2 2l20 20"/></svg>