<svg xmlns="http://www.w3.org/2000/svg" fill="none" stroke="currentColor" stroke-linecap="round" stroke-linejoin="round" stroke-width="2" viewBox="0 0 24 24"><path d="M11.15 15.85a1.2 1.2 0 0 1 1.7 0l1.56 1.56a2 2 0 0 1 .59 1.42V21a1 1 0 0 1-1 1h-4a1 1 0 0 1-1-1v-2.17a2 2 0 0 1 .59-1.42zm7.68-.85a2 2 0 0 1-1.42-.59l-1.56-1.56a1.2 1.2 0 0 1 0-1.7l1.56-1.56A2 2 0 0 1 18.83 9H21a1 1 0 0 1 1 1v4a1 1 0 0 1-1 1zm-12.24-.59a2 2 0 0 1-1.42.59H3a1 1 0 0 1-1-1v-4a1 1 0 0 1 1-1h2.17a2 2 0 0 1 1.42.59l1.56 1.56a1.2 1.2 0 0 1 0 1.7zM9 3a1 1 0 0 1 1-1h4a1 1 0 0 1 1 1v2.17a2 2 0 0 1-.59 1.42l-1.56 1.56a1.2 1.2 0 0 1-1.7 0L9.59 6.59A2 2 0 0 1 9 5.17z"/></svg>