<svg xmlns="http://www.w3.org/2000/svg" fill="none" stroke="currentColor" stroke-linecap="round" stroke-linejoin="round" stroke-width="2" viewBox="0 0 24 24"><path d="M12 4V2m-7 8v4a7 7 0 0 0 5.28 6.79c.4.1.8.29 1.1.59L12 22l.62-.62c.3-.3.7-.49 1.1-.6a7 7 0 0 0 4.13-2.93M19 10v3.34"/><path d="M12 12c-1.35-.57-1.9-1-2.5-2-.55.9-1.05 1.35-2.5 2a5 5 0 0 1-2-2 5 5 0 0 1-3 1 6.7 6.7 0 0 0 2-3c.2-.78.84-1.55 1.79-2.21m11.65 6c.9-.46 1.28-.9 1.56-1.79 1.03.92 1.68 1.16 3 1a5.2 5.2 0 0 1-2-3c-.5-2-4-4-8-4q-1.11 0-2.15.2M2 2l20 20"/></svg>