<svg xmlns="http://www.w3.org/2000/svg" fill="none" stroke="currentColor" stroke-linecap="round" stroke-linejoin="round" stroke-width="2" viewBox="0 0 24 24"><path d="M12 4V2m-7 8v4a7 7 0 0 0 5.28 6.79c.4.1.8.29 1.1.59L12 22l.62-.62c.3-.3.7-.49 1.1-.6A7 7 0 0 0 19 14v-4"/><path d="M12 4C8 4 4.5 6 4 8a6.7 6.7 0 0 1-2 3 5 5 0 0 0 3-1 5 5 0 0 0 2 2c1.45-.65 1.95-1.1 2.5-2 .6 1 1.15 1.43 2.5 2a5.2 5.2 0 0 0 2.5-2 4.6 4.6 0 0 0 2.5 2c1.2-.55 1.68-.97 2-2 1.03.92 1.68 1.16 3 1a5.2 5.2 0 0 1-2-3c-.5-2-4-4-8-4"/></svg>