<svg xmlns="http://www.w3.org/2000/svg" fill="none" stroke="currentColor" stroke-linecap="round" stroke-linejoin="round" stroke-width="2" viewBox="0 0 24 24"><path d="M15.39 4.39a1 1 0 0 0 1.68-.47 2.5 2.5 0 1 1 3.01 3.01 1 1 0 0 0-.47 1.68l1.68 1.68a2.4 2.4 0 0 1 0 3.42l-1.68 1.68a1 1 0 0 1-1.68-.47 2.5 2.5 0 1 0-3.01 3.01 1 1 0 0 1 .47 1.68l-1.68 1.68a2.4 2.4 0 0 1-3.42 0l-1.68-1.68a1 1 0 0 0-1.68.47 2.5 2.5 0 1 1-3.01-3.01 1 1 0 0 0 .47-1.68L2.71 13.7a2.4 2.4 0 0 1 0-3.42L4.39 8.6a1 1 0 0 1 1.68.47 2.5 2.5 0 1 0 3.01-3.01 1 1 0 0 1-.47-1.68l1.68-1.68a2.4 2.4 0 0 1 3.42 0z"/></svg>