<svg xmlns="http://www.w3.org/2000/svg" fill="none" stroke="currentColor" stroke-linecap="round" stroke-linejoin="round" stroke-width="2" viewBox="0 0 24 24"><path d="m10.85 14.77-.38.93m2.68-.93a3 3 0 1 0-2.3-5.54l-.38-.92m2.68.92.38-.93m0 7.4-.38-.93a3 3 0 1 1-2.3-5.54m3.92 1.62.93-.38m-.93 2.68.93.38"/><path d="M4.5 10H4a2 2 0 0 1-2-2V4a2 2 0 0 1 2-2h16a2 2 0 0 1 2 2v4a2 2 0 0 1-2 2h-.5m-15 4H4a2 2 0 0 0-2 2v4a2 2 0 0 0 2 2h16a2 2 0 0 0 2-2v-4a2 2 0 0 0-2-2h-.5M9.23 10.85l-.93-.38m.93 2.68-.93.38"/></svg>