<svg xmlns="http://www.w3.org/2000/svg" fill="none" stroke="currentColor" stroke-linecap="round" stroke-linejoin="round" stroke-width="2" viewBox="0 0 24 24"><path d="M9.67 4.14a2.34 2.34 0 0 1 4.66 0 2.34 2.34 0 0 0 3.32 1.91 2.34 2.34 0 0 1 2.33 4.03 2.34 2.34 0 0 0 0 3.83 2.34 2.34 0 0 1-2.33 4.04 2.34 2.34 0 0 0-3.32 1.91 2.34 2.34 0 0 1-4.66 0 2.34 2.34 0 0 0-3.32-1.91 2.34 2.34 0 0 1-2.33-4.03 2.34 2.34 0 0 0 0-3.84 2.34 2.34 0 0 1 2.33-4.03 2.34 2.34 0 0 0 3.32-1.91"/><circle cx="12" cy="12" r="3"/></svg>