<svg xmlns="http://www.w3.org/2000/svg" fill="none" stroke="currentColor" stroke-linecap="round" stroke-linejoin="round" stroke-width="2" viewBox="0 0 24 24"><path d="M11.04 7.69a1 1 0 0 1 1.9.02l.74 1.46a1 1 0 0 0 .74.53l1.63.26a1 1 0 0 1 .59 1.8l-1.17 1.17a1 1 0 0 0-.28.87l.26 1.61a1 1 0 0 1-1.55 1.13l-1.46-.75a1 1 0 0 0-.91 0l-1.47.75a1 1 0 0 1-1.54-1.13l.26-1.61a1 1 0 0 0-.28-.87l-1.16-1.15a1 1 0 0 1 .57-1.82l1.64-.26a1 1 0 0 0 .73-.53z"/><rect width="18" height="18" x="3" y="3" rx="2"/></svg>