<svg xmlns="http://www.w3.org/2000/svg" fill="none" stroke="currentColor" stroke-linecap="round" stroke-linejoin="round" stroke-width="2" viewBox="0 0 24 24"><path d="M16.05 12.62a1 1 0 0 1 1.91.02l.74 1.45a1 1 0 0 0 .73.54l1.64.25a1 1 0 0 1 .59 1.8l-1.18 1.18a1 1 0 0 0-.28.86l.26 1.62a1 1 0 0 1-1.54 1.13l-1.47-.75a1 1 0 0 0-.9 0l-1.47.75a1 1 0 0 1-1.54-1.13l.26-1.62a1 1 0 0 0-.29-.86l-1.15-1.15a1 1 0 0 1 .57-1.83l1.63-.25a1 1 0 0 0 .74-.54zM8 15H7a4 4 0 0 0-4 4v2"/><circle cx="10" cy="7" r="4"/></svg>