<svg xmlns="http://www.w3.org/2000/svg" viewBox="0 0 800 600">
  <rect x="0" y="0" width="800" height="600" fill="#87CEEB" />
  <path d="M0,400 Q200,300 400,400 T800,400 L800,600 L0,600 Z" fill="#F4E3C1" />
  <g>
    <path d="M200,320 C220,300 260,300 280,320 S300,360 280,380 C260,400 220,400 200,380 S180,340 200,320" fill="#D4A373" stroke="#A9865B" stroke-width="2" />
    <ellipse cx="250" cy="360" rx="10" ry="15" fill="#A9865B" />
    <ellipse cx="230" cy="340" rx="5" ry="10" fill="#F4E3C1" />
  </g>
  <g>
    <path d="M500,300 C520,280 580,280 600,300 S620,340 600,360 C580,380 520,380 500,360 S480,320 500,300" fill="#F4E3C1" stroke="#D4A373" stroke-width="2" />
    <circle cx="550" cy="330" r="10" fill="#A9865B" />
    <ellipse cx="530" cy="310" rx="8" ry="12" fill="#D4A373" />
  </g>
  <text x="50" y="550" font-family="Arial, sans-serif" font-size="16" fill="#5D4037">Detailed barter scene with seashells</text>
</svg>