<svg xmlns="http://www.w3.org/2000/svg" viewBox="0 0 463.4968892212147 100" width="800" height="173"><rect width="100%" height="100%" fill="#121232"/><g transform="translate(0,0) scale(0.6872379905161158)"><g transform="translate(-13.18,-54.49)"><path d="M42.77 200L13.18 200L13.18 54.49L58.89 54.49L82.52 121.29Q83.98 125.98 85.89 133.40Q87.79 140.82 89.75 149.41Q91.70 158.01 93.41 166.11Q95.12 174.22 96.19 180.18L96.19 180.18L90.43 180.18Q91.50 174.32 93.21 166.26Q94.92 158.20 96.88 149.61Q98.83 141.02 100.73 133.50Q102.64 125.98 104.10 121.29L104.10 121.29L127.34 54.49L173.24 54.49L173.24 200L143.26 200L143.26 131.45Q143.26 126.66 143.41 119.53Q143.55 112.40 143.80 104.15Q144.04 95.90 144.24 87.55Q144.43 79.20 144.53 71.78L144.53 71.78L146.39 71.78Q144.53 79.88 142.29 88.53Q140.04 97.17 137.74 105.27Q135.45 113.38 133.40 120.17Q131.35 126.95 129.88 131.45L129.88 131.45L105.76 200L80.66 200L56.15 131.45Q54.69 126.95 52.64 120.26Q50.59 113.57 48.29 105.47Q46.00 97.36 43.65 88.72Q41.31 80.08 39.26 71.78L39.26 71.78L41.50 71.78Q41.60 78.81 41.80 87.11Q41.99 95.41 42.24 103.76Q42.48 112.11 42.63 119.29Q42.77 126.46 42.77 131.45L42.77 131.45L42.77 200Z" fill="#00BAFF" opacity="0.3"/></g></g><g transform="translate(2.702376672557527,0) scale(0.4338583018786064)"><g transform="translate(27.23,-17.14)"><path d="M27.13 224.2Q-2.5 236.87 -7.51 220.05Q-27.23 128.7 -8.58 35.6Q6.79 17.14 46.28 28.59Q38.06 57.3 54.26 115.67Q48.36 137.57 70.38 157.68Q78.34 177.06 86.87 178.08Q90.97 195.46 94.11 194.91Q97.13 211.62 98.12 208.93Q99.4 228.09 98.12 208.93Q94.1 228.15 89.45 208.97Q90.86 211.77 93.77 195.07Q97.64 195.56 101.73 178.01Q111.62 176.22 118.93 155.83Q138.84 135.61 132.52 116.54Q151.46 113.38 132.52 116.54Q149.08 58.2 140.4 28.81Q180.06 17.53 195.19 35.83Q213.85 128.69 194.14 219.83Q189.13 236.53 159.18 224.01Q180.61 191.81 171.7 136.03Q180.63 129.16 172.14 117.44Q180.19 104.63 170.81 94.12Q177.14 78.38 167.97 71.22Q173.02 55.01 165.04 51.54Q178.71 38.05 165.04 51.54Q179.93 38.35 167.25 51.91Q173.33 55.93 165.94 72.08Q172.9 79.19 164.52 94.66Q171.96 105.02 162.13 118.01Q168.64 130.49 158.03 137.6Q176.79 141.71 158.03 137.6Q145.41 198.71 110.71 228.38Q93.72 247.64 76.31 228.48Q41.48 199.1 28.05 137.81Q17.42 130.61 23.91 118.1Q14.1 105.12 21.57 94.69Q13.3 79.1 20.14 72.06Q12.71 55.9 18.57 51.73Q4.78 38.36 18.57 51.73Q6.26 38 21.25 51.29Q13.42 54.14 18.36 70.36Q9.21 77.3 15.39 93.32Q5.93 103.95 13.91 117Q5.39 128.88 14.35 136.15Q-4.6 139.28 14.35 136.15Q5.7 192.12 27.13 224.2Z" fill="#00BAFF" opacity="0.8"/></g></g><g transform="translate(114.9993127620095,0) scale(0.6692992436918547)"><g transform="translate(-9.18,-52.54)"><path d="M77.05 201.95L77.05 201.95Q57.81 201.95 42.43 193.16Q27.05 184.38 18.12 167.68Q9.18 150.98 9.18 127.34L9.18 127.34Q9.18 103.61 18.12 86.87Q27.05 70.12 42.43 61.33Q57.81 52.54 77.05 52.54L77.05 52.54Q96.39 52.54 111.72 61.33Q127.05 70.12 135.99 86.87Q144.92 103.61 144.92 127.34L144.92 127.34Q144.92 150.98 135.99 167.68Q127.05 184.38 111.72 193.16Q96.39 201.95 77.05 201.95ZM77.05 175.49L77.05 175.49Q88.38 175.49 96.83 169.97Q105.27 164.45 109.96 153.66Q114.65 142.87 114.65 127.34L114.65 127.34Q114.65 111.62 109.96 100.83Q105.27 90.04 96.83 84.52Q88.38 79.00 77.05 79.00L77.05 79.00Q65.82 79.00 57.32 84.57Q48.83 90.14 44.14 100.93Q39.45 111.72 39.45 127.34L39.45 127.34Q39.45 142.87 44.14 153.61Q48.83 164.36 57.32 169.92Q65.82 175.49 77.05 175.49Z" fill="#00BAFF" opacity="0.3"/></g></g><g transform="translate(113.2921333984969,0) scale(0.4183050280264369)"><g transform="translate(35.62,-7.72)"><path d="M77.05 228.84Q77.04 246.77 77.05 228.84Q48.84 235.74 29.6 216.79Q3.53 210.25 -4.43 182.33Q-24.14 161.58 -17.7 126.53Q-35.62 125.99 -17.7 126.53Q-23.5 91.2 -3.69 71.14Q4.5 43.4 30.23 37.36Q49.31 18.63 77.05 25.65Q77.04 7.72 77.05 25.65Q104.92 18.63 123.92 37.36Q149.59 43.4 157.8 71.13Q177.6 91.2 171.8 126.53Q189.72 125.99 171.8 126.53Q178.24 161.58 158.54 182.33Q150.57 210.25 124.56 216.79Q105.39 235.73 77.05 228.84ZM77.04 202.38Q77.04 220.31 77.04 202.38Q96.72 209.44 108.61 194.15Q127.19 191.69 131.6 169.63Q147.56 154.67 141.5 125.88Q159.41 124.9 141.5 125.88Q146.26 96.68 130.27 83.2Q125.64 61.63 107.67 59.91Q96.04 44.89 77.04 52.11Q77.04 34.18 77.04 52.11Q58.21 44.88 46.48 59.96Q28.41 61.76 23.79 83.34Q7.81 96.86 12.6 125.88Q-5.31 124.9 12.6 125.88Q6.54 154.67 22.48 169.55Q26.87 191.56 45.54 194.1Q57.54 209.46 77.04 202.38Z" fill="#00BAFF" opacity="0.8"/></g></g><g transform="translate(210.84999210074187,0) scale(0.6872379905161158)"><g transform="translate(-13.18,-54.49)"><path d="M42.97 200L13.18 200L13.18 54.49L69.92 54.49Q86.52 54.49 98.14 60.35Q109.77 66.21 115.87 76.86Q121.97 87.50 121.97 101.86L121.97 101.86Q121.97 116.21 115.77 126.61Q109.57 137.01 97.80 142.53Q86.04 148.05 69.24 148.05L69.24 148.05L30.76 148.05L30.76 123.93L64.45 123.93Q73.63 123.93 79.49 121.44Q85.35 118.95 88.28 114.01Q91.21 109.08 91.21 101.86L91.21 101.86Q91.21 94.43 88.28 89.40Q85.35 84.38 79.44 81.74Q73.54 79.10 64.36 79.10L64.36 79.10L42.97 79.10L42.97 200ZM127.15 200L94.14 200L58.69 133.79L91.02 133.79L127.15 200Z" fill="#00BAFF" opacity="0.3"/></g></g><g transform="translate(208.59510164041652,0) scale(0.44837017441599786)"><g transform="translate(22.19,-17.9)"><path d="M31.75 223.67Q4.53 236.51 -3.62 220.09Q-22.19 130.56 -6.1 36.76Q20.29 17.9 65.03 28.76Q88.97 20.53 105.25 35.14Q125.94 36.25 132.59 56.7Q149.13 66.97 146.31 92.19Q162.54 85.75 146.31 92.19Q155.99 114.9 141.11 133.25Q137.5 156.49 111.91 164.6Q90.59 181.79 59.11 172.2Q52.35 188.3 59.11 172.2Q21.41 179.24 8.22 161.39Q-9.99 150.01 4.76 127.07Q5.14 133.33 39.75 132.65Q46.29 144.22 64.94 143.22Q117.46 130.28 110.82 100.67Q116.06 85.8 104.39 79.23Q113.18 64.14 104.39 79.23Q103.77 62.78 93.98 63.84Q88.8 50.51 77.62 55.61Q66.3 45.83 53.51 55.26Q46.28 39.37 53.51 55.26Q28.74 43.79 24.37 60.66Q12.16 149.37 31.75 223.67ZM139.76 222.95Q124.58 240.93 97.98 225.91Q64.01 204.38 37.13 148.66Q65.08 169.22 103.91 156.59Q130.3 205.05 139.76 222.95Z" fill="#00BAFF" opacity="0.8"/></g></g><g transform="translate(294.1676334999584,0) scale(0.6872379905161158)"><g transform="translate(-13.18,-54.49)"><path d="M42.97 200L13.18 200L13.18 54.49L69.92 54.49Q86.52 54.49 98.14 60.79Q109.77 67.09 115.87 78.17Q121.97 89.26 121.97 103.61L121.97 103.61Q121.97 118.07 115.77 129.05Q109.57 140.04 97.80 146.24Q86.04 152.44 69.24 152.44L69.24 152.44L32.71 152.44L32.71 128.42L64.45 128.42Q73.63 128.42 79.54 125.24Q85.45 122.07 88.33 116.50Q91.21 110.94 91.21 103.61L91.21 103.61Q91.21 96.29 88.33 90.77Q85.45 85.25 79.49 82.18Q73.54 79.10 64.36 79.10L64.36 79.10L42.97 79.10L42.97 200Z" fill="#00BAFF" opacity="0.3"/></g></g><g transform="translate(289.033759075691,0) scale(0.45591319412783804)"><g transform="translate(21.74,-18.26)"><path d="M32.88 224.17Q6.32 237.6 -2.62 220.89Q-21.74 132.57 -6.62 37.34Q20.1 18.26 65.54 28.67Q90.53 20.68 107.01 36.15Q128.7 38.79 134.98 60.26Q151.93 73.09 147.65 98.46Q164.77 95.03 147.65 98.46Q155.68 122.84 139.47 140.19Q134.44 163.3 110.08 169.38Q91.34 186.07 62.68 177.8Q58.3 194.7 62.68 177.8Q27.93 188.08 12.84 169.51Q-4.6 162.19 7.97 137.02Q12.15 151.02 46.59 147.57Q61.8 160.35 79.26 151.43Q102.49 151.55 111.66 128.4Q125.09 107.56 112.31 88.09Q126.38 77.75 112.31 88.09Q111.28 68.78 98.18 66.5Q92.6 51.96 79.32 55.99Q67.31 45.63 53.33 55.35Q45.97 39.51 53.33 55.35Q27.76 44.63 23.49 61.59Q13.2 151.84 32.88 224.17Z" fill="#00BAFF" opacity="0.8"/></g></g><g transform="translate(373.93225448820664,0) scale(0.6872379905161158)"><g transform="translate(-13.18,-54.49)"><path d="M42.97 200L13.18 200L13.18 54.49L42.97 54.49L42.97 113.28L106.35 113.28L106.35 54.49L136.23 54.49L136.23 200L106.35 200L106.35 137.99L42.97 137.99L42.97 200Z" fill="#00BAFF" opacity="0.3"/></g></g><g transform="translate(372.63392082725113,0) scale(0.45462811420258226)"><g transform="translate(20.76,-16.59)"><path d="M32.57 224.04Q4.77 236.54 -4.04 219.73Q-20.76 125.37 -2.65 33.62Q6.98 16.59 33.75 29.97Q17.76 49.91 21.02 98.98Q76.66 82.35 129.21 100.5Q133.6 51.6 116.86 30.5Q144.13 17.58 152.86 34.26Q170.96 125.42 154.23 219.03Q146.39 235.38 118.14 223.39Q137.8 194.88 132.19 142.27Q78.83 159.58 17.25 142.95Q13.05 196.31 32.57 224.04Z" fill="#00BAFF" opacity="0.8"/></g></g></svg>